<svg width="329" height="143" viewBox="0 0 329 143" fill="none" xmlns="http://www.w3.org/2000/svg">
<path d="M6.345 23.9H26.5275V113H6.345V23.9ZM42.6611 23.9H73.2386C78.3236 23.9 83.0261 24.5975 87.3461 25.9925C91.7111 27.3875 95.2211 29.6825 97.8761 32.8775C100.576 36.0275 101.926 40.3025 101.926 45.7025C101.926 49.2575 101.251 52.43 99.9011 55.22C98.5961 58.01 96.8411 60.305 94.6361 62.105C92.4761 63.86 90.1136 65.03 87.5486 65.615C89.7986 65.885 91.9811 66.5375 94.0961 67.5725C96.2561 68.5625 98.1911 69.9575 99.9011 71.7575C101.656 73.5125 103.029 75.7175 104.019 78.3725C105.054 80.9825 105.571 84.0875 105.571 87.6875C105.571 92.6825 104.446 97.0925 102.196 100.917C99.9911 104.697 96.7511 107.667 92.4761 109.827C88.2461 111.942 83.0486 113 76.8836 113H42.6611V23.9ZM62.8436 96.8675H72.0236C74.9036 96.8675 77.2436 96.44 79.0436 95.585C80.8886 94.685 82.2386 93.425 83.0936 91.805C83.9486 90.14 84.3761 88.16 84.3761 85.865C84.3761 82.265 83.2511 79.6325 81.0011 77.9675C78.7961 76.2575 75.6911 75.4025 71.6861 75.4025H62.8436V96.8675ZM62.8436 59.6075H71.0111C73.3961 59.6075 75.3761 59.18 76.9511 58.325C78.5711 57.47 79.7861 56.2775 80.5961 54.7475C81.4511 53.1725 81.8786 51.3725 81.8786 49.3475C81.8786 45.7025 80.8436 43.25 78.7736 41.99C76.7036 40.685 73.8686 40.0325 70.2686 40.0325H62.8436V59.6075ZM117.666 23.9H150.066C155.781 23.9 160.934 24.9125 165.524 26.9375C170.114 28.9175 173.759 31.955 176.459 36.05C179.204 40.1 180.576 45.185 180.576 51.305C180.576 57.38 179.204 62.555 176.459 66.83C173.759 71.06 170.114 74.3 165.524 76.55C160.934 78.755 155.781 79.8575 150.066 79.8575H137.849V113H117.666V23.9ZM137.849 63.9275H144.464C147.209 63.9275 149.661 63.5225 151.821 62.7125C154.026 61.9025 155.781 60.62 157.086 58.865C158.391 57.065 159.044 54.7025 159.044 51.7775C159.044 48.8075 158.391 46.4675 157.086 44.7575C155.781 43.0025 154.026 41.7425 151.821 40.9775C149.661 40.2125 147.209 39.83 144.464 39.83H137.849V63.9275ZM210.889 23.9H230.936L266.104 113H244.571L238.091 95.1125H203.801L197.254 113H175.654L210.889 23.9ZM210.551 77.4275H231.409L221.081 48.2H220.879L210.551 77.4275Z" fill="black"/>
<rect x="283" width="20" height="113" fill="black"/>
<rect x="259" y="23" width="70" height="18" fill="black"/>
<circle cx="293" cy="32" r="21" stroke="black" stroke-width="4"/>
</svg>
