<svg width="347" height="142" viewBox="0 0 347 142" fill="none" xmlns="http://www.w3.org/2000/svg">
<path d="M6.345 23.6516H26.5275V112.752H6.345V23.6516ZM42.6611 23.6516H73.2386C78.3236 23.6516 83.0261 24.3491 87.3461 25.7441C91.7111 27.1391 95.2211 29.4341 97.8761 32.6291C100.576 35.7791 101.926 40.0541 101.926 45.4541C101.926 49.0091 101.251 52.1816 99.9011 54.9716C98.5961 57.7616 96.8411 60.0566 94.6361 61.8566C92.4761 63.6116 90.1136 64.7816 87.5486 65.3666C89.7986 65.6366 91.9811 66.2891 94.0961 67.3241C96.2561 68.3141 98.1911 69.7091 99.9011 71.5091C101.656 73.2641 103.029 75.4691 104.019 78.1241C105.054 80.7341 105.571 83.8391 105.571 87.4391C105.571 92.4341 104.446 96.8441 102.196 100.669C99.9911 104.449 96.7511 107.419 92.4761 109.579C88.2461 111.694 83.0486 112.752 76.8836 112.752H42.6611V23.6516ZM62.8436 96.6191H72.0236C74.9036 96.6191 77.2436 96.1916 79.0436 95.3366C80.8886 94.4366 82.2386 93.1766 83.0936 91.5566C83.9486 89.8916 84.3761 87.9116 84.3761 85.6166C84.3761 82.0166 83.2511 79.3841 81.0011 77.7191C78.7961 76.0091 75.6911 75.1541 71.6861 75.1541H62.8436V96.6191ZM62.8436 59.3591H71.0111C73.3961 59.3591 75.3761 58.9316 76.9511 58.0766C78.5711 57.2216 79.7861 56.0291 80.5961 54.4991C81.4511 52.9241 81.8786 51.1241 81.8786 49.0991C81.8786 45.4541 80.8436 43.0016 78.7736 41.7416C76.7036 40.4366 73.8686 39.7841 70.2686 39.7841H62.8436V59.3591ZM117.666 23.6516H150.066C155.781 23.6516 160.934 24.6641 165.524 26.6891C170.114 28.6691 173.759 31.7066 176.459 35.8016C179.204 39.8516 180.576 44.9366 180.576 51.0566C180.576 57.1316 179.204 62.3066 176.459 66.5816C173.759 70.8116 170.114 74.0516 165.524 76.3016C160.934 78.5066 155.781 79.6091 150.066 79.6091H137.849V112.752H117.666V23.6516ZM137.849 63.6791H144.464C147.209 63.6791 149.661 63.2741 151.821 62.4641C154.026 61.6541 155.781 60.3716 157.086 58.6166C158.391 56.8166 159.044 54.4541 159.044 51.5291C159.044 48.5591 158.391 46.2191 157.086 44.5091C155.781 42.7541 154.026 41.4941 151.821 40.7291C149.661 39.9641 147.209 39.5816 144.464 39.5816H137.849V63.6791ZM210.889 23.6516H230.936L266.104 112.752H244.571L238.091 94.8641H203.801L197.254 112.752H175.654L210.889 23.6516ZM210.551 77.1791H231.409L221.081 47.9516H220.879L210.551 77.1791Z" fill="#0D5131"/>
<rect x="298.163" y="0.5" width="20.0363" height="110.523" fill="#0D5131" stroke="#0D5131"/>
<rect x="272.92" y="23.1993" width="72.6269" height="16.7647" fill="#0D5131" stroke="#0D5131"/>
<path d="M330.373 31.5817C330.373 42.8956 320.559 52.281 308.181 52.281C295.803 52.281 285.99 42.8956 285.99 31.5817C285.99 20.2678 295.803 10.8824 308.181 10.8824C320.559 10.8824 330.373 20.2678 330.373 31.5817Z" stroke="#0D5131" stroke-width="4"/>
</svg>
