<svg width="406" height="151" viewBox="0 0 406 151" fill="none" xmlns="http://www.w3.org/2000/svg">
<path d="M36.8476 23.6516H57.0301V112.752H36.8476V23.6516ZM73.1636 23.6516H103.741C108.826 23.6516 113.529 24.3491 117.849 25.7441C122.214 27.1391 125.724 29.4341 128.379 32.6291C131.079 35.7791 132.429 40.0541 132.429 45.4541C132.429 49.0091 131.754 52.1816 130.404 54.9716C129.099 57.7616 127.344 60.0566 125.139 61.8566C122.979 63.6116 120.616 64.7816 118.051 65.3666C120.301 65.6366 122.484 66.2891 124.599 67.3241C126.759 68.3141 128.694 69.7091 130.404 71.5091C132.159 73.2641 133.531 75.4691 134.521 78.1241C135.556 80.7341 136.074 83.8391 136.074 87.4391C136.074 92.4341 134.949 96.8441 132.699 100.669C130.494 104.449 127.254 107.419 122.979 109.579C118.749 111.694 113.551 112.752 107.386 112.752H73.1636V23.6516ZM93.3461 96.6191H102.526C105.406 96.6191 107.746 96.1916 109.546 95.3366C111.391 94.4366 112.741 93.1766 113.596 91.5566C114.451 89.8916 114.879 87.9116 114.879 85.6166C114.879 82.0166 113.754 79.3841 111.504 77.7191C109.299 76.0091 106.194 75.1541 102.189 75.1541H93.3461V96.6191ZM93.3461 59.3591H101.514C103.899 59.3591 105.879 58.9316 107.454 58.0766C109.074 57.2216 110.289 56.0291 111.099 54.4991C111.954 52.9241 112.381 51.1241 112.381 49.0991C112.381 45.4541 111.346 43.0016 109.276 41.7416C107.206 40.4366 104.371 39.7841 100.771 39.7841H93.3461V59.3591ZM148.169 23.6516H180.569C186.284 23.6516 191.436 24.6641 196.026 26.6891C200.616 28.6691 204.261 31.7066 206.961 35.8016C209.706 39.8516 211.079 44.9366 211.079 51.0566C211.079 57.1316 209.706 62.3066 206.961 66.5816C204.261 70.8116 200.616 74.0516 196.026 76.3016C191.436 78.5066 186.284 79.6091 180.569 79.6091H168.351V112.752H148.169V23.6516ZM168.351 63.6791H174.966C177.711 63.6791 180.164 63.2741 182.324 62.4641C184.529 61.6541 186.284 60.3716 187.589 58.6166C188.894 56.8166 189.546 54.4541 189.546 51.5291C189.546 48.5591 188.894 46.2191 187.589 44.5091C186.284 42.7541 184.529 41.4941 182.324 40.7291C180.164 39.9641 177.711 39.5816 174.966 39.5816H168.351V63.6791ZM241.392 23.6516H261.439L296.607 112.752H275.074L268.594 94.8641H234.304L227.757 112.752H206.157L241.392 23.6516ZM241.054 77.1791H261.912L251.584 47.9516H251.382L241.054 77.1791Z" fill="black"/>
<rect x="328.166" width="21.0363" height="111.523" fill="black"/>
<rect x="302.922" y="22.6993" width="73.6269" height="17.7647" fill="black"/>
<path d="M360.876 31.5817C360.876 42.8956 351.062 52.281 338.684 52.281C326.306 52.281 316.492 42.8956 316.492 31.5817C316.492 20.2678 326.306 10.8824 338.684 10.8824C351.062 10.8824 360.876 20.2678 360.876 31.5817Z" stroke="black" stroke-width="4"/>
<path d="M9.87109 141.635C8.66797 141.635 7.53776 141.398 6.48047 140.924C5.44141 140.45 4.52083 139.803 3.71875 138.982C2.9349 138.162 2.3151 137.214 1.85938 136.139C1.42188 135.045 1.20312 133.887 1.20312 132.666C1.20312 131.372 1.43099 130.159 1.88672 129.029C2.34245 127.881 2.98047 126.878 3.80078 126.021C4.62109 125.146 5.56901 124.463 6.64453 123.971C7.73828 123.478 8.91406 123.232 10.1719 123.232C11.2474 123.232 12.3411 123.287 13.4531 123.396C14.5651 123.506 15.6862 123.679 16.8164 123.916L16.7617 127.853C16.7617 128.127 16.5703 128.264 16.1875 128.264C16.0052 128.264 15.8867 128.218 15.832 128.127C15.7773 127.89 15.7044 127.653 15.6133 127.416C15.5404 127.161 15.3763 126.833 15.1211 126.432C14.6836 125.793 14.0547 125.292 13.2344 124.928C12.4323 124.563 11.4388 124.381 10.2539 124.381C9.36068 124.381 8.52214 124.599 7.73828 125.037C6.95443 125.456 6.26172 126.03 5.66016 126.76C5.07682 127.489 4.62109 128.318 4.29297 129.248C3.96484 130.159 3.80078 131.107 3.80078 132.092C3.80078 133.605 4.05599 134.963 4.56641 136.166C5.07682 137.405 5.87891 138.435 6.97266 139.256C8.08464 140.058 9.39714 140.459 10.9102 140.459C12.7148 140.459 14.1094 139.93 15.0938 138.873C15.3854 138.563 15.6133 138.198 15.7773 137.779C15.9414 137.36 16.069 136.995 16.1602 136.685C16.2513 136.376 16.3424 136.221 16.4336 136.221C16.543 136.221 16.6706 136.239 16.8164 136.275C16.9805 136.293 17.1081 136.33 17.1992 136.385L17.3359 136.467C17.3359 136.576 17.2995 136.831 17.2266 137.232C17.1536 137.633 17.0625 138.08 16.9531 138.572C16.8438 139.046 16.7344 139.465 16.625 139.83C16.5339 140.195 16.4609 140.395 16.4062 140.432C15.0573 141.234 12.8789 141.635 9.87109 141.635ZM27.7266 141.471C25.5573 141.471 23.8893 140.833 22.7227 139.557C21.556 138.28 20.9727 136.221 20.9727 133.377V127.17C20.9727 126.605 20.9544 126.122 20.918 125.721C20.8997 125.301 20.8542 124.973 20.7812 124.736C20.7448 124.627 20.6081 124.536 20.3711 124.463C20.1341 124.372 19.8789 124.299 19.6055 124.244C19.332 124.189 19.1133 124.162 18.9492 124.162C18.8763 124.162 18.8398 124.043 18.8398 123.807C18.8398 123.588 18.8763 123.442 18.9492 123.369L22.2305 123.506C22.3763 123.506 22.7135 123.497 23.2422 123.478C23.7708 123.442 24.4909 123.405 25.4023 123.369C25.4388 123.515 25.457 123.642 25.457 123.752C25.457 124.025 25.4206 124.162 25.3477 124.162C25.2383 124.162 25.0469 124.198 24.7734 124.271C24.5 124.326 24.2448 124.399 24.0078 124.49C23.7708 124.563 23.6341 124.645 23.5977 124.736C23.4336 125.356 23.3516 126.204 23.3516 127.279V133.377C23.3516 135.437 23.7891 137.077 24.6641 138.299C25.5391 139.52 26.7786 140.131 28.3828 140.131C31.5 140.131 33.0586 138.08 33.0586 133.978V127.142C33.0586 125.994 32.9948 125.192 32.8672 124.736C32.8307 124.627 32.6667 124.527 32.375 124.435C32.0833 124.344 31.7734 124.271 31.4453 124.217C31.1172 124.144 30.8711 124.107 30.707 124.107C30.6341 124.107 30.5977 123.998 30.5977 123.779C30.5977 123.579 30.6341 123.442 30.707 123.369C30.8711 123.369 31.1445 123.387 31.5273 123.424C31.9102 123.442 32.3203 123.469 32.7578 123.506C33.2135 123.524 33.6055 123.533 33.9336 123.533C34.4076 123.533 35.0091 123.506 35.7383 123.451C36.4492 123.396 36.8685 123.369 36.9961 123.369C37.0326 123.515 37.0508 123.652 37.0508 123.779C37.0508 123.998 37.0143 124.107 36.9414 124.107C36.832 124.107 36.6042 124.144 36.2578 124.217C35.9115 124.29 35.5833 124.372 35.2734 124.463C34.9818 124.554 34.8177 124.645 34.7812 124.736C34.7083 125.028 34.6536 125.383 34.6172 125.803C34.5807 126.222 34.5625 126.714 34.5625 127.279V133.924C34.5625 135.801 34.2982 137.296 33.7695 138.408C33.2409 139.502 32.4661 140.286 31.4453 140.76C30.4245 141.234 29.1849 141.471 27.7266 141.471ZM51.2969 141.58C50.349 141.58 48.8724 141.553 46.8672 141.498C45.8646 141.461 44.9531 141.434 44.1328 141.416C43.3125 141.398 42.5924 141.398 41.9727 141.416L38.6641 141.498C38.6094 141.443 38.582 141.297 38.582 141.06C38.582 140.823 38.6094 140.705 38.6641 140.705C38.8464 140.705 39.0651 140.678 39.3203 140.623C39.5938 140.568 39.849 140.504 40.0859 140.432C40.3411 140.34 40.4961 140.24 40.5508 140.131C40.6784 139.93 40.7422 139.073 40.7422 137.56V127.224C40.7422 126.021 40.6784 125.192 40.5508 124.736C40.5143 124.627 40.3776 124.536 40.1406 124.463C39.9036 124.372 39.6484 124.299 39.375 124.244C39.1016 124.189 38.8828 124.162 38.7188 124.162C38.6458 124.162 38.6094 124.043 38.6094 123.807C38.6094 123.588 38.6458 123.442 38.7188 123.369C38.8828 123.369 39.1562 123.387 39.5391 123.424C39.9401 123.442 40.3685 123.469 40.8242 123.506C41.2799 123.524 41.6719 123.533 42 123.533C42.5833 123.533 43.1667 123.515 43.75 123.478C44.3333 123.424 44.8073 123.387 45.1719 123.369C45.2083 123.515 45.2266 123.652 45.2266 123.779C45.2266 124.034 45.1901 124.162 45.1172 124.162C45.0078 124.162 44.8164 124.198 44.543 124.271C44.2695 124.326 44.0143 124.399 43.7773 124.49C43.5404 124.563 43.4036 124.645 43.3672 124.736C43.2031 125.356 43.1211 126.204 43.1211 127.279V137.588C43.1211 138.554 43.2031 139.356 43.3672 139.994C43.4219 140.176 44.0417 140.267 45.2266 140.267H46.5391C48.2161 140.267 49.3646 140.113 49.9844 139.803C50.2578 139.657 50.5586 139.338 50.8867 138.846C51.2331 138.335 51.5065 137.734 51.707 137.041C51.7435 136.932 51.8711 136.877 52.0898 136.877C52.4362 136.877 52.6641 136.932 52.7734 137.041C52.7188 137.187 52.6276 137.415 52.5 137.724C52.3906 138.016 52.2812 138.317 52.1719 138.627C52.0625 138.937 51.9714 139.201 51.8984 139.42C51.7891 139.748 51.6706 140.122 51.543 140.541C51.4154 140.96 51.3333 141.307 51.2969 141.58ZM59.0625 141.553C58.9896 141.48 58.9531 141.343 58.9531 141.142C58.9531 140.887 58.9896 140.76 59.0625 140.76C59.2266 140.76 59.4453 140.741 59.7188 140.705C59.9922 140.65 60.2474 140.577 60.4844 140.486C60.7214 140.395 60.8581 140.304 60.8945 140.213C60.9674 139.958 61.013 139.629 61.0312 139.228C61.0677 138.827 61.0859 138.344 61.0859 137.779V127.881C61.0859 126.295 61.0039 125.356 60.8398 125.064C60.7122 124.791 59.7279 124.654 57.8867 124.654C57.194 124.654 56.6562 124.718 56.2734 124.846C55.8906 124.955 55.599 125.183 55.3984 125.529C55.1979 125.876 55.0065 126.395 54.8242 127.088C54.7878 127.179 54.6966 127.224 54.5508 127.224C54.2409 127.224 54.0221 127.161 53.8945 127.033L54.4141 123.123C54.8151 123.214 55.1706 123.287 55.4805 123.342C55.7904 123.396 56.0638 123.424 56.3008 123.424C57.6133 123.424 58.7708 123.442 59.7734 123.478C60.776 123.515 61.6146 123.533 62.2891 123.533C63.6927 123.533 64.8958 123.515 65.8984 123.478C66.9193 123.442 67.7214 123.424 68.3047 123.424C68.5417 123.424 68.8151 123.396 69.125 123.342C69.4349 123.287 69.7904 123.214 70.1914 123.123L70.7109 127.033C70.5833 127.161 70.3646 127.224 70.0547 127.224C69.9089 127.224 69.8177 127.179 69.7812 127.088C69.6172 126.395 69.4258 125.876 69.207 125.529C69.0065 125.183 68.7148 124.955 68.332 124.846C67.9492 124.718 67.4115 124.654 66.7188 124.654C64.8047 124.654 63.8021 124.791 63.7109 125.064C63.5469 125.629 63.4648 126.541 63.4648 127.799V137.67C63.4648 138.727 63.5469 139.575 63.7109 140.213C63.7474 140.286 63.8841 140.368 64.1211 140.459C64.3581 140.55 64.6133 140.623 64.8867 140.678C65.1602 140.732 65.3516 140.76 65.4609 140.76C65.5339 140.76 65.5703 140.896 65.5703 141.17C65.5703 141.279 65.5521 141.407 65.5156 141.553C64.6042 141.516 63.8841 141.489 63.3555 141.471C62.8268 141.434 62.4896 141.416 62.3438 141.416L59.0625 141.553ZM72.5703 141.553C72.4974 141.48 72.4609 141.343 72.4609 141.142C72.4609 140.887 72.4974 140.76 72.5703 140.76C72.7344 140.76 72.9531 140.741 73.2266 140.705C73.5 140.65 73.7552 140.577 73.9922 140.486C74.2292 140.395 74.3659 140.304 74.4023 140.213C74.4753 139.958 74.5208 139.629 74.5391 139.228C74.5755 138.827 74.5938 138.344 74.5938 137.779V127.17C74.5938 126.605 74.5755 126.122 74.5391 125.721C74.5208 125.301 74.4753 124.973 74.4023 124.736C74.3659 124.627 74.2292 124.536 73.9922 124.463C73.7552 124.372 73.5 124.299 73.2266 124.244C72.9531 124.189 72.7344 124.162 72.5703 124.162C72.4974 124.162 72.4609 124.043 72.4609 123.807C72.4609 123.588 72.4974 123.442 72.5703 123.369L75.8516 123.506C75.9974 123.506 76.3346 123.497 76.8633 123.478C77.3919 123.442 78.112 123.405 79.0234 123.369C79.0599 123.515 79.0781 123.652 79.0781 123.779C79.0781 124.034 79.0417 124.162 78.9688 124.162C78.8594 124.162 78.668 124.198 78.3945 124.271C78.1211 124.326 77.8659 124.399 77.6289 124.49C77.3919 124.563 77.2552 124.645 77.2188 124.736C77.0547 125.356 76.9727 126.204 76.9727 127.279V137.67C76.9727 138.727 77.0547 139.575 77.2188 140.213C77.2552 140.286 77.3919 140.368 77.6289 140.459C77.8659 140.55 78.1211 140.623 78.3945 140.678C78.668 140.732 78.8594 140.76 78.9688 140.76C79.0417 140.76 79.0781 140.896 79.0781 141.17C79.0781 141.279 79.0599 141.407 79.0234 141.553C78.112 141.516 77.3919 141.489 76.8633 141.471C76.3346 141.434 75.9974 141.416 75.8516 141.416L72.5703 141.553ZM89.5508 141.717C89.4232 141.717 89.332 141.662 89.2773 141.553L83.6719 127.416C83.2161 126.213 82.806 125.338 82.4414 124.791C82.3138 124.59 82.0495 124.435 81.6484 124.326C81.2474 124.217 80.9284 124.162 80.6914 124.162C80.6185 124.162 80.582 124.043 80.582 123.807C80.582 123.588 80.6185 123.442 80.6914 123.369C81.1289 123.387 81.6211 123.415 82.168 123.451C82.7148 123.488 83.2708 123.506 83.8359 123.506C84.0547 123.506 84.4466 123.497 85.0117 123.478C85.5768 123.442 86.3151 123.405 87.2266 123.369C87.263 123.442 87.2721 123.597 87.2539 123.834C87.2539 124.053 87.2266 124.162 87.1719 124.162C86.8255 124.162 86.4701 124.235 86.1055 124.381C85.7409 124.527 85.5586 124.754 85.5586 125.064C85.5586 125.593 86.707 128.665 89.0039 134.279C89.2591 134.899 89.4779 135.455 89.6602 135.947C89.8607 136.421 90.0339 136.831 90.1797 137.178C90.2344 137.269 90.3073 137.296 90.3984 137.26C90.5078 137.205 90.5807 137.132 90.6172 137.041L94.7188 127.142C95.0651 126.267 95.2383 125.629 95.2383 125.228C95.2383 124.955 95.1198 124.745 94.8828 124.599C94.6458 124.435 94.3724 124.326 94.0625 124.271C93.7708 124.198 93.5247 124.162 93.3242 124.162C93.2513 124.162 93.2148 124.043 93.2148 123.807C93.2148 123.588 93.2513 123.442 93.3242 123.369C94.181 123.405 94.8464 123.442 95.3203 123.478C95.8125 123.497 96.1224 123.506 96.25 123.506L99.0117 123.369C99.0482 123.515 99.0664 123.652 99.0664 123.779C99.0664 124.034 99.0299 124.162 98.957 124.162C98.1367 124.162 97.5898 124.417 97.3164 124.928C97.1159 125.31 96.8971 125.739 96.6602 126.213C96.4414 126.668 96.2135 127.179 95.9766 127.744L90.5078 140.814C90.2708 141.416 89.9518 141.717 89.5508 141.717ZM96.8789 141.553C96.806 141.48 96.7695 141.343 96.7695 141.142C96.7695 140.887 96.806 140.76 96.8789 140.76C97.0977 140.76 97.3802 140.714 97.7266 140.623C98.0729 140.532 98.3099 140.404 98.4375 140.24C98.638 139.985 98.8385 139.648 99.0391 139.228C99.2578 138.809 99.4857 138.29 99.7227 137.67L104.48 125.447C104.59 125.174 104.654 124.982 104.672 124.873C104.708 124.764 104.736 124.672 104.754 124.599C104.79 124.508 104.854 124.363 104.945 124.162C105.073 123.907 105.201 123.706 105.328 123.56C105.456 123.415 105.665 123.342 105.957 123.342L106.203 123.424L111.672 137.861C111.836 138.28 111.982 138.654 112.109 138.982C112.255 139.31 112.374 139.593 112.465 139.83C112.538 140.012 112.693 140.176 112.93 140.322C113.185 140.45 113.44 140.559 113.695 140.65C113.969 140.723 114.178 140.76 114.324 140.76C114.397 140.76 114.434 140.933 114.434 141.279C114.434 141.316 114.424 141.361 114.406 141.416C114.406 141.452 114.397 141.498 114.379 141.553C113.467 141.516 112.757 141.489 112.246 141.471C111.754 141.434 111.462 141.416 111.371 141.416L108.199 141.553C108.126 141.48 108.09 141.334 108.09 141.115C108.108 140.878 108.154 140.76 108.227 140.76C108.445 140.76 108.719 140.714 109.047 140.623C109.375 140.532 109.566 140.413 109.621 140.267C109.639 140.195 109.648 140.122 109.648 140.049C109.667 139.976 109.676 139.903 109.676 139.83C109.676 139.593 109.648 139.32 109.594 139.01C109.539 138.682 109.475 138.426 109.402 138.244L108.172 134.853C108.117 134.78 108.062 134.744 108.008 134.744C107.297 134.689 106.604 134.662 105.93 134.662C105.456 134.662 104.927 134.68 104.344 134.717C103.779 134.735 103.15 134.762 102.457 134.799L102.32 134.881L101.145 137.889C100.962 138.344 100.835 138.727 100.762 139.037C100.707 139.347 100.68 139.593 100.68 139.775C100.68 140.03 100.753 140.213 100.898 140.322C101.062 140.45 101.327 140.559 101.691 140.65C102.056 140.723 102.32 140.76 102.484 140.76C102.539 140.76 102.566 140.869 102.566 141.088C102.585 141.307 102.576 141.461 102.539 141.553L99.7227 141.416C99.2122 141.379 98.7109 141.389 98.2188 141.443C97.7448 141.48 97.2982 141.516 96.8789 141.553ZM104.973 133.349C105.793 133.349 106.622 133.322 107.461 133.267L107.543 133.131L105.328 127.088L102.977 133.185C102.977 133.258 102.995 133.295 103.031 133.295C103.505 133.313 103.897 133.331 104.207 133.349C104.535 133.349 104.79 133.349 104.973 133.349ZM131.059 141.607C130.767 141.607 130.466 141.398 130.156 140.978L119.547 125.939V137.615C119.547 138.855 119.611 139.702 119.738 140.158C119.775 140.231 119.93 140.322 120.203 140.432C120.495 140.523 120.805 140.605 121.133 140.678C121.461 140.732 121.68 140.76 121.789 140.76C121.844 140.76 121.871 140.869 121.871 141.088C121.889 141.307 121.88 141.461 121.844 141.553C120.932 141.516 120.212 141.489 119.684 141.471C119.173 141.434 118.845 141.416 118.699 141.416L115.555 141.553C115.5 141.498 115.473 141.361 115.473 141.142C115.473 140.887 115.5 140.76 115.555 140.76C115.737 140.76 115.992 140.732 116.32 140.678C116.648 140.605 116.958 140.523 117.25 140.432C117.542 140.322 117.706 140.213 117.742 140.103C117.924 139.666 118.016 138.809 118.016 137.533V126.787C118.016 125.857 117.952 125.174 117.824 124.736C117.788 124.627 117.624 124.536 117.332 124.463C117.059 124.372 116.758 124.299 116.43 124.244C116.102 124.189 115.846 124.162 115.664 124.162C115.591 124.162 115.555 124.043 115.555 123.807C115.555 123.588 115.591 123.442 115.664 123.369C116.375 123.387 116.958 123.405 117.414 123.424C117.888 123.424 118.234 123.424 118.453 123.424C118.927 123.424 119.346 123.424 119.711 123.424C120.076 123.405 120.385 123.387 120.641 123.369C120.987 123.989 121.926 125.42 123.457 127.662C125.007 129.886 127.158 132.921 129.91 136.767C129.965 136.458 129.992 136.084 129.992 135.646V127.142C129.992 125.994 129.928 125.192 129.801 124.736C129.764 124.627 129.6 124.527 129.309 124.435C129.017 124.344 128.707 124.271 128.379 124.217C128.051 124.144 127.805 124.107 127.641 124.107C127.568 124.107 127.531 123.998 127.531 123.779C127.531 123.579 127.568 123.442 127.641 123.369C127.805 123.369 128.078 123.387 128.461 123.424C128.844 123.442 129.254 123.469 129.691 123.506C130.147 123.524 130.539 123.533 130.867 123.533C131.341 123.533 131.943 123.506 132.672 123.451C133.383 123.396 133.802 123.369 133.93 123.369C133.966 123.515 133.984 123.652 133.984 123.779C133.984 123.998 133.948 124.107 133.875 124.107C133.766 124.107 133.538 124.144 133.191 124.217C132.845 124.29 132.517 124.372 132.207 124.463C131.915 124.554 131.751 124.645 131.715 124.736C131.642 125.028 131.587 125.383 131.551 125.803C131.514 126.222 131.496 126.714 131.496 127.279V137.67C131.496 138.8 131.523 140.076 131.578 141.498C131.505 141.571 131.332 141.607 131.059 141.607ZM135.68 141.553C135.625 141.498 135.598 141.361 135.598 141.142C135.598 140.887 135.625 140.76 135.68 140.76C135.844 140.76 136.062 140.732 136.336 140.678C136.609 140.605 136.865 140.523 137.102 140.432C137.357 140.34 137.512 140.24 137.566 140.131C137.694 139.93 137.758 139.073 137.758 137.56V127.224C137.758 126.696 137.74 126.231 137.703 125.83C137.685 125.429 137.639 125.11 137.566 124.873C137.53 124.764 137.384 124.663 137.129 124.572C136.892 124.481 136.628 124.408 136.336 124.353C136.062 124.299 135.844 124.271 135.68 124.271C135.607 124.271 135.57 124.162 135.57 123.943C135.57 123.706 135.607 123.551 135.68 123.478C136.154 123.497 136.655 123.515 137.184 123.533C137.73 123.533 138.314 123.533 138.934 123.533L141.586 123.506C142.115 123.506 142.552 123.506 142.898 123.506C143.245 123.488 143.509 123.478 143.691 123.478C145.678 123.478 147.374 123.889 148.777 124.709C150.181 125.511 151.257 126.577 152.004 127.908C152.751 129.239 153.125 130.697 153.125 132.283C153.125 134.033 152.742 135.619 151.977 137.041C151.229 138.463 150.145 139.584 148.723 140.404C147.319 141.224 145.633 141.607 143.664 141.553L141.723 141.498C141.176 141.48 140.674 141.471 140.219 141.471C139.763 141.452 139.353 141.452 138.988 141.471L135.68 141.553ZM144.102 140.295C148.294 140.295 150.391 137.588 150.391 132.174C150.391 130.788 150.145 129.53 149.652 128.4C149.16 127.27 148.431 126.368 147.465 125.693C146.517 125.019 145.332 124.682 143.91 124.682H143.773C141.805 124.682 140.711 124.827 140.492 125.119C140.255 125.429 140.137 126.003 140.137 126.842V137.67C140.137 138.417 140.273 139.11 140.547 139.748C140.583 139.839 140.738 139.921 141.012 139.994C141.285 140.049 141.613 140.103 141.996 140.158C142.397 140.195 142.789 140.231 143.172 140.267C143.555 140.286 143.865 140.295 144.102 140.295ZM158.156 139.037C156.443 137.251 155.586 135.072 155.586 132.502C155.586 131.226 155.814 130.032 156.27 128.92C156.725 127.79 157.345 126.805 158.129 125.967C158.931 125.11 159.861 124.445 160.918 123.971C161.975 123.478 163.105 123.232 164.309 123.232C165.512 123.232 166.642 123.478 167.699 123.971C168.757 124.445 169.686 125.11 170.488 125.967C171.29 126.805 171.919 127.79 172.375 128.92C172.831 130.032 173.059 131.226 173.059 132.502C173.059 135.072 172.202 137.251 170.488 139.037C169.322 140.277 168 141.097 166.523 141.498C165.047 141.917 163.57 141.917 162.094 141.498C160.635 141.097 159.323 140.277 158.156 139.037ZM164.746 140.568C165.913 140.568 166.934 140.185 167.809 139.42C168.684 138.672 169.322 137.743 169.723 136.631C170.142 135.501 170.352 134.297 170.352 133.021C170.352 131.581 170.115 130.205 169.641 128.892C169.167 127.598 168.428 126.523 167.426 125.666C166.423 124.809 165.247 124.381 163.898 124.381C162.75 124.381 161.757 124.736 160.918 125.447C160.079 126.14 159.432 127.06 158.977 128.209C158.521 129.339 158.293 130.57 158.293 131.9C158.293 133.34 158.53 134.717 159.004 136.029C159.478 137.323 160.216 138.408 161.219 139.283C162.221 140.14 163.397 140.568 164.746 140.568ZM181.207 141.553C181.134 141.48 181.098 141.343 181.098 141.142C181.098 140.887 181.134 140.76 181.207 140.76C181.426 140.76 181.708 140.714 182.055 140.623C182.401 140.532 182.638 140.404 182.766 140.24C182.966 139.985 183.167 139.648 183.367 139.228C183.586 138.809 183.814 138.29 184.051 137.67L188.809 125.447C188.918 125.174 188.982 124.982 189 124.873C189.036 124.764 189.064 124.672 189.082 124.599C189.118 124.508 189.182 124.363 189.273 124.162C189.401 123.907 189.529 123.706 189.656 123.56C189.784 123.415 189.993 123.342 190.285 123.342L190.531 123.424L196 137.861C196.164 138.28 196.31 138.654 196.438 138.982C196.583 139.31 196.702 139.593 196.793 139.83C196.866 140.012 197.021 140.176 197.258 140.322C197.513 140.45 197.768 140.559 198.023 140.65C198.297 140.723 198.507 140.76 198.652 140.76C198.725 140.76 198.762 140.933 198.762 141.279C198.762 141.316 198.753 141.361 198.734 141.416C198.734 141.452 198.725 141.498 198.707 141.553C197.796 141.516 197.085 141.489 196.574 141.471C196.082 141.434 195.79 141.416 195.699 141.416L192.527 141.553C192.454 141.48 192.418 141.334 192.418 141.115C192.436 140.878 192.482 140.76 192.555 140.76C192.773 140.76 193.047 140.714 193.375 140.623C193.703 140.532 193.895 140.413 193.949 140.267C193.967 140.195 193.977 140.122 193.977 140.049C193.995 139.976 194.004 139.903 194.004 139.83C194.004 139.593 193.977 139.32 193.922 139.01C193.867 138.682 193.803 138.426 193.73 138.244L192.5 134.853C192.445 134.78 192.391 134.744 192.336 134.744C191.625 134.689 190.932 134.662 190.258 134.662C189.784 134.662 189.255 134.68 188.672 134.717C188.107 134.735 187.478 134.762 186.785 134.799L186.648 134.881L185.473 137.889C185.29 138.344 185.163 138.727 185.09 139.037C185.035 139.347 185.008 139.593 185.008 139.775C185.008 140.03 185.081 140.213 185.227 140.322C185.391 140.45 185.655 140.559 186.02 140.65C186.384 140.723 186.648 140.76 186.812 140.76C186.867 140.76 186.895 140.869 186.895 141.088C186.913 141.307 186.904 141.461 186.867 141.553L184.051 141.416C183.54 141.379 183.039 141.389 182.547 141.443C182.073 141.48 181.626 141.516 181.207 141.553ZM189.301 133.349C190.121 133.349 190.951 133.322 191.789 133.267L191.871 133.131L189.656 127.088L187.305 133.185C187.305 133.258 187.323 133.295 187.359 133.295C187.833 133.313 188.225 133.331 188.535 133.349C188.863 133.349 189.118 133.349 189.301 133.349ZM212.242 141.744C211.805 141.744 211.34 141.708 210.848 141.635C210.355 141.58 209.945 141.516 209.617 141.443C208.943 141.316 208.451 141.215 208.141 141.142C207.849 141.051 207.576 140.988 207.32 140.951C207.083 139.821 206.91 138.9 206.801 138.189C206.691 137.46 206.637 136.932 206.637 136.603C206.637 136.494 206.783 136.439 207.074 136.439C207.402 136.439 207.63 136.521 207.758 136.685C208.396 139.31 209.909 140.623 212.297 140.623C213.208 140.623 213.983 140.349 214.621 139.803C215.259 139.256 215.578 138.481 215.578 137.478C215.578 137.15 215.505 136.749 215.359 136.275C215.232 135.801 214.931 135.391 214.457 135.045C214.092 134.771 213.792 134.571 213.555 134.443C213.318 134.297 213.081 134.17 212.844 134.06C212.607 133.933 212.306 133.76 211.941 133.541L210.848 132.885C210.283 132.538 209.717 132.146 209.152 131.709C208.587 131.253 208.113 130.724 207.73 130.123C207.366 129.521 207.184 128.838 207.184 128.072C207.184 127.106 207.43 126.267 207.922 125.557C208.432 124.827 209.089 124.262 209.891 123.861C210.711 123.46 211.595 123.26 212.543 123.26C212.944 123.26 213.318 123.287 213.664 123.342C214.029 123.378 214.329 123.424 214.566 123.478C215.113 123.606 215.496 123.706 215.715 123.779C215.952 123.852 216.271 123.934 216.672 124.025C216.891 124.973 217 126.277 217 127.935C217 128.063 216.909 128.127 216.727 128.127C216.271 128.127 216.034 128.036 216.016 127.853C215.924 127.307 215.724 126.769 215.414 126.24C215.104 125.711 214.685 125.274 214.156 124.928C213.628 124.563 212.999 124.381 212.27 124.381C211.522 124.381 210.939 124.527 210.52 124.818C210.1 125.092 209.799 125.447 209.617 125.885C209.453 126.304 209.371 126.751 209.371 127.224C209.371 127.68 209.48 128.136 209.699 128.592C209.918 129.047 210.237 129.43 210.656 129.74C211.221 130.159 211.786 130.551 212.352 130.916C212.935 131.28 213.536 131.654 214.156 132.037C214.74 132.402 215.323 132.812 215.906 133.267C216.49 133.705 216.973 134.206 217.355 134.771C217.757 135.336 217.957 135.993 217.957 136.74C217.957 137.706 217.693 138.572 217.164 139.338C216.635 140.085 215.934 140.678 215.059 141.115C214.202 141.534 213.263 141.744 212.242 141.744ZM219.598 141.553C219.525 141.48 219.488 141.343 219.488 141.142C219.488 140.887 219.525 140.76 219.598 140.76C219.816 140.76 220.099 140.714 220.445 140.623C220.792 140.532 221.029 140.404 221.156 140.24C221.357 139.985 221.557 139.648 221.758 139.228C221.977 138.809 222.204 138.29 222.441 137.67L227.199 125.447C227.309 125.174 227.372 124.982 227.391 124.873C227.427 124.764 227.454 124.672 227.473 124.599C227.509 124.508 227.573 124.363 227.664 124.162C227.792 123.907 227.919 123.706 228.047 123.56C228.174 123.415 228.384 123.342 228.676 123.342L228.922 123.424L234.391 137.861C234.555 138.28 234.701 138.654 234.828 138.982C234.974 139.31 235.092 139.593 235.184 139.83C235.257 140.012 235.411 140.176 235.648 140.322C235.904 140.45 236.159 140.559 236.414 140.65C236.688 140.723 236.897 140.76 237.043 140.76C237.116 140.76 237.152 140.933 237.152 141.279C237.152 141.316 237.143 141.361 237.125 141.416C237.125 141.452 237.116 141.498 237.098 141.553C236.186 141.516 235.475 141.489 234.965 141.471C234.473 141.434 234.181 141.416 234.09 141.416L230.918 141.553C230.845 141.48 230.809 141.334 230.809 141.115C230.827 140.878 230.872 140.76 230.945 140.76C231.164 140.76 231.438 140.714 231.766 140.623C232.094 140.532 232.285 140.413 232.34 140.267C232.358 140.195 232.367 140.122 232.367 140.049C232.385 139.976 232.395 139.903 232.395 139.83C232.395 139.593 232.367 139.32 232.312 139.01C232.258 138.682 232.194 138.426 232.121 138.244L230.891 134.853C230.836 134.78 230.781 134.744 230.727 134.744C230.016 134.689 229.323 134.662 228.648 134.662C228.174 134.662 227.646 134.68 227.062 134.717C226.497 134.735 225.868 134.762 225.176 134.799L225.039 134.881L223.863 137.889C223.681 138.344 223.553 138.727 223.48 139.037C223.426 139.347 223.398 139.593 223.398 139.775C223.398 140.03 223.471 140.213 223.617 140.322C223.781 140.45 224.046 140.559 224.41 140.65C224.775 140.723 225.039 140.76 225.203 140.76C225.258 140.76 225.285 140.869 225.285 141.088C225.303 141.307 225.294 141.461 225.258 141.553L222.441 141.416C221.931 141.379 221.43 141.389 220.938 141.443C220.464 141.48 220.017 141.516 219.598 141.553ZM227.691 133.349C228.512 133.349 229.341 133.322 230.18 133.267L230.262 133.131L228.047 127.088L225.695 133.185C225.695 133.258 225.714 133.295 225.75 133.295C226.224 133.313 226.616 133.331 226.926 133.349C227.254 133.349 227.509 133.349 227.691 133.349ZM230.262 121.154C229.715 121.154 229.068 120.954 228.32 120.553C227.555 120.17 226.926 119.978 226.434 119.978C225.85 119.978 225.404 120.297 225.094 120.935C225.076 120.954 225.021 120.963 224.93 120.963C224.766 120.963 224.684 120.817 224.684 120.525C224.684 120.179 224.802 119.869 225.039 119.596C225.276 119.304 225.559 119.067 225.887 118.885C226.233 118.702 226.543 118.611 226.816 118.611C227.345 118.611 227.974 118.803 228.703 119.185C229.451 119.568 230.079 119.76 230.59 119.76C231.246 119.76 231.711 119.45 231.984 118.83C232.003 118.812 232.057 118.803 232.148 118.803C232.312 118.803 232.395 118.948 232.395 119.24C232.395 119.568 232.276 119.878 232.039 120.17C231.802 120.461 231.52 120.698 231.191 120.881C230.863 121.063 230.553 121.154 230.262 121.154ZM244.945 141.553C244.891 141.498 244.863 141.361 244.863 141.142C244.863 140.887 244.891 140.76 244.945 140.76C245.109 140.76 245.328 140.732 245.602 140.678C245.875 140.605 246.13 140.523 246.367 140.432C246.622 140.34 246.777 140.24 246.832 140.131C246.96 139.93 247.023 139.073 247.023 137.56V127.224C247.023 126.696 247.005 126.231 246.969 125.83C246.951 125.429 246.905 125.11 246.832 124.873C246.796 124.764 246.65 124.663 246.395 124.572C246.158 124.481 245.893 124.408 245.602 124.353C245.328 124.299 245.109 124.271 244.945 124.271C244.872 124.271 244.836 124.162 244.836 123.943C244.836 123.706 244.872 123.551 244.945 123.478C245.419 123.497 245.921 123.515 246.449 123.533C246.996 123.533 247.579 123.533 248.199 123.533L250.852 123.506C251.38 123.506 251.818 123.506 252.164 123.506C252.51 123.488 252.775 123.478 252.957 123.478C254.944 123.478 256.639 123.889 258.043 124.709C259.447 125.511 260.522 126.577 261.27 127.908C262.017 129.239 262.391 130.697 262.391 132.283C262.391 134.033 262.008 135.619 261.242 137.041C260.495 138.463 259.41 139.584 257.988 140.404C256.585 141.224 254.898 141.607 252.93 141.553L250.988 141.498C250.441 141.48 249.94 141.471 249.484 141.471C249.029 141.452 248.618 141.452 248.254 141.471L244.945 141.553ZM253.367 140.295C257.56 140.295 259.656 137.588 259.656 132.174C259.656 130.788 259.41 129.53 258.918 128.4C258.426 127.27 257.697 126.368 256.73 125.693C255.783 125.019 254.598 124.682 253.176 124.682H253.039C251.07 124.682 249.977 124.827 249.758 125.119C249.521 125.429 249.402 126.003 249.402 126.842V137.67C249.402 138.417 249.539 139.11 249.812 139.748C249.849 139.839 250.004 139.921 250.277 139.994C250.551 140.049 250.879 140.103 251.262 140.158C251.663 140.195 252.055 140.231 252.438 140.267C252.82 140.286 253.13 140.295 253.367 140.295ZM267.422 139.037C265.708 137.251 264.852 135.072 264.852 132.502C264.852 131.226 265.079 130.032 265.535 128.92C265.991 127.79 266.611 126.805 267.395 125.967C268.197 125.11 269.126 124.445 270.184 123.971C271.241 123.478 272.371 123.232 273.574 123.232C274.777 123.232 275.908 123.478 276.965 123.971C278.022 124.445 278.952 125.11 279.754 125.967C280.556 126.805 281.185 127.79 281.641 128.92C282.096 130.032 282.324 131.226 282.324 132.502C282.324 135.072 281.467 137.251 279.754 139.037C278.587 140.277 277.266 141.097 275.789 141.498C274.312 141.917 272.836 141.917 271.359 141.498C269.901 141.097 268.589 140.277 267.422 139.037ZM274.012 140.568C275.178 140.568 276.199 140.185 277.074 139.42C277.949 138.672 278.587 137.743 278.988 136.631C279.408 135.501 279.617 134.297 279.617 133.021C279.617 131.581 279.38 130.205 278.906 128.892C278.432 127.598 277.694 126.523 276.691 125.666C275.689 124.809 274.513 124.381 273.164 124.381C272.016 124.381 271.022 124.736 270.184 125.447C269.345 126.14 268.698 127.06 268.242 128.209C267.786 129.339 267.559 130.57 267.559 131.9C267.559 133.34 267.796 134.717 268.27 136.029C268.743 137.323 269.482 138.408 270.484 139.283C271.487 140.14 272.663 140.568 274.012 140.568ZM293.344 141.471C291.174 141.471 289.507 140.833 288.34 139.557C287.173 138.28 286.59 136.221 286.59 133.377V127.17C286.59 126.605 286.572 126.122 286.535 125.721C286.517 125.301 286.471 124.973 286.398 124.736C286.362 124.627 286.225 124.536 285.988 124.463C285.751 124.372 285.496 124.299 285.223 124.244C284.949 124.189 284.73 124.162 284.566 124.162C284.493 124.162 284.457 124.043 284.457 123.807C284.457 123.588 284.493 123.442 284.566 123.369L287.848 123.506C287.993 123.506 288.331 123.497 288.859 123.478C289.388 123.442 290.108 123.405 291.02 123.369C291.056 123.515 291.074 123.642 291.074 123.752C291.074 124.025 291.038 124.162 290.965 124.162C290.855 124.162 290.664 124.198 290.391 124.271C290.117 124.326 289.862 124.399 289.625 124.49C289.388 124.563 289.251 124.645 289.215 124.736C289.051 125.356 288.969 126.204 288.969 127.279V133.377C288.969 135.437 289.406 137.077 290.281 138.299C291.156 139.52 292.396 140.131 294 140.131C297.117 140.131 298.676 138.08 298.676 133.978V127.142C298.676 125.994 298.612 125.192 298.484 124.736C298.448 124.627 298.284 124.527 297.992 124.435C297.701 124.344 297.391 124.271 297.062 124.217C296.734 124.144 296.488 124.107 296.324 124.107C296.251 124.107 296.215 123.998 296.215 123.779C296.215 123.579 296.251 123.442 296.324 123.369C296.488 123.369 296.762 123.387 297.145 123.424C297.527 123.442 297.938 123.469 298.375 123.506C298.831 123.524 299.223 123.533 299.551 123.533C300.025 123.533 300.626 123.506 301.355 123.451C302.066 123.396 302.486 123.369 302.613 123.369C302.65 123.515 302.668 123.652 302.668 123.779C302.668 123.998 302.632 124.107 302.559 124.107C302.449 124.107 302.221 124.144 301.875 124.217C301.529 124.29 301.201 124.372 300.891 124.463C300.599 124.554 300.435 124.645 300.398 124.736C300.326 125.028 300.271 125.383 300.234 125.803C300.198 126.222 300.18 126.714 300.18 127.279V133.924C300.18 135.801 299.915 137.296 299.387 138.408C298.858 139.502 298.083 140.286 297.062 140.76C296.042 141.234 294.802 141.471 293.344 141.471ZM309.148 141.553C309.076 141.48 309.039 141.343 309.039 141.142C309.039 140.887 309.076 140.76 309.148 140.76C309.312 140.76 309.531 140.741 309.805 140.705C310.078 140.65 310.333 140.577 310.57 140.486C310.807 140.395 310.944 140.304 310.98 140.213C311.053 139.958 311.099 139.629 311.117 139.228C311.154 138.827 311.172 138.344 311.172 137.779V127.881C311.172 126.295 311.09 125.356 310.926 125.064C310.798 124.791 309.814 124.654 307.973 124.654C307.28 124.654 306.742 124.718 306.359 124.846C305.977 124.955 305.685 125.183 305.484 125.529C305.284 125.876 305.092 126.395 304.91 127.088C304.874 127.179 304.783 127.224 304.637 127.224C304.327 127.224 304.108 127.161 303.98 127.033L304.5 123.123C304.901 123.214 305.257 123.287 305.566 123.342C305.876 123.396 306.15 123.424 306.387 123.424C307.699 123.424 308.857 123.442 309.859 123.478C310.862 123.515 311.701 123.533 312.375 123.533C313.779 123.533 314.982 123.515 315.984 123.478C317.005 123.442 317.807 123.424 318.391 123.424C318.628 123.424 318.901 123.396 319.211 123.342C319.521 123.287 319.876 123.214 320.277 123.123L320.797 127.033C320.669 127.161 320.451 127.224 320.141 127.224C319.995 127.224 319.904 127.179 319.867 127.088C319.703 126.395 319.512 125.876 319.293 125.529C319.092 125.183 318.801 124.955 318.418 124.846C318.035 124.718 317.497 124.654 316.805 124.654C314.891 124.654 313.888 124.791 313.797 125.064C313.633 125.629 313.551 126.541 313.551 127.799V137.67C313.551 138.727 313.633 139.575 313.797 140.213C313.833 140.286 313.97 140.368 314.207 140.459C314.444 140.55 314.699 140.623 314.973 140.678C315.246 140.732 315.438 140.76 315.547 140.76C315.62 140.76 315.656 140.896 315.656 141.17C315.656 141.279 315.638 141.407 315.602 141.553C314.69 141.516 313.97 141.489 313.441 141.471C312.913 141.434 312.576 141.416 312.43 141.416L309.148 141.553ZM339.008 141.607C336.474 141.607 334.259 140.295 332.363 137.67C332.217 137.469 332.026 137.196 331.789 136.849C331.57 136.503 331.16 135.892 330.559 135.017C330.267 134.598 330.003 134.252 329.766 133.978C329.547 133.687 329.283 133.468 328.973 133.322C328.681 133.176 328.28 133.103 327.77 133.103C327.569 133.103 327.405 133.131 327.277 133.185C327.168 133.24 327.113 133.368 327.113 133.568V137.588C327.113 138.791 327.186 139.584 327.332 139.967C327.405 140.113 327.578 140.249 327.852 140.377C328.143 140.504 328.453 140.605 328.781 140.678C329.109 140.732 329.346 140.76 329.492 140.76C329.565 140.76 329.602 140.887 329.602 141.142C329.602 141.27 329.583 141.407 329.547 141.553C328.635 141.516 327.879 141.48 327.277 141.443C326.694 141.407 326.266 141.398 325.992 141.416L322.656 141.553C322.602 141.498 322.574 141.334 322.574 141.06C322.574 140.823 322.602 140.705 322.656 140.705C322.839 140.705 323.057 140.678 323.312 140.623C323.586 140.568 323.841 140.504 324.078 140.432C324.333 140.34 324.488 140.24 324.543 140.131C324.671 139.93 324.734 139.073 324.734 137.56V127.224C324.734 126.696 324.716 126.231 324.68 125.83C324.661 125.429 324.616 125.11 324.543 124.873C324.507 124.764 324.361 124.663 324.105 124.572C323.868 124.481 323.604 124.408 323.312 124.353C323.039 124.299 322.82 124.271 322.656 124.271C322.583 124.271 322.547 124.162 322.547 123.943C322.547 123.706 322.583 123.551 322.656 123.478L325.938 123.533C326.466 123.551 327.113 123.542 327.879 123.506C328.645 123.451 329.283 123.424 329.793 123.424C330.777 123.424 331.716 123.615 332.609 123.998C333.521 124.381 334.259 124.946 334.824 125.693C335.408 126.441 335.699 127.352 335.699 128.428C335.699 129.193 335.408 129.995 334.824 130.834C334.259 131.672 333.484 132.32 332.5 132.775C332.318 132.848 332.263 132.939 332.336 133.049C333.229 134.945 334.277 136.549 335.48 137.861C337.23 139.775 338.652 140.732 339.746 140.732C339.801 140.842 339.828 140.969 339.828 141.115C339.828 141.279 339.801 141.416 339.746 141.525C339.564 141.58 339.318 141.607 339.008 141.607ZM329.492 131.928H330.176C330.613 131.928 331.06 131.782 331.516 131.49C331.99 131.198 332.382 130.788 332.691 130.26C333.02 129.731 333.184 129.12 333.184 128.428C333.184 125.894 331.908 124.627 329.355 124.627C328.517 124.627 327.879 124.691 327.441 124.818C327.277 124.855 327.177 125.155 327.141 125.721C327.122 126.267 327.113 126.969 327.113 127.826V131.135C327.113 131.663 327.906 131.928 329.492 131.928ZM340.703 141.553C340.63 141.48 340.594 141.343 340.594 141.142C340.594 140.887 340.63 140.76 340.703 140.76C340.867 140.76 341.086 140.741 341.359 140.705C341.633 140.65 341.888 140.577 342.125 140.486C342.362 140.395 342.499 140.304 342.535 140.213C342.608 139.958 342.654 139.629 342.672 139.228C342.708 138.827 342.727 138.344 342.727 137.779V127.17C342.727 126.605 342.708 126.122 342.672 125.721C342.654 125.301 342.608 124.973 342.535 124.736C342.499 124.627 342.362 124.536 342.125 124.463C341.888 124.372 341.633 124.299 341.359 124.244C341.086 124.189 340.867 124.162 340.703 124.162C340.63 124.162 340.594 124.043 340.594 123.807C340.594 123.588 340.63 123.442 340.703 123.369L343.984 123.506C344.13 123.506 344.467 123.497 344.996 123.478C345.525 123.442 346.245 123.405 347.156 123.369C347.193 123.515 347.211 123.652 347.211 123.779C347.211 124.034 347.174 124.162 347.102 124.162C346.992 124.162 346.801 124.198 346.527 124.271C346.254 124.326 345.999 124.399 345.762 124.49C345.525 124.563 345.388 124.645 345.352 124.736C345.188 125.356 345.105 126.204 345.105 127.279V137.67C345.105 138.727 345.188 139.575 345.352 140.213C345.388 140.286 345.525 140.368 345.762 140.459C345.999 140.55 346.254 140.623 346.527 140.678C346.801 140.732 346.992 140.76 347.102 140.76C347.174 140.76 347.211 140.896 347.211 141.17C347.211 141.279 347.193 141.407 347.156 141.553C346.245 141.516 345.525 141.489 344.996 141.471C344.467 141.434 344.13 141.416 343.984 141.416L340.703 141.553ZM364.383 141.607C364.091 141.607 363.79 141.398 363.48 140.978L352.871 125.939V137.615C352.871 138.855 352.935 139.702 353.062 140.158C353.099 140.231 353.254 140.322 353.527 140.432C353.819 140.523 354.129 140.605 354.457 140.678C354.785 140.732 355.004 140.76 355.113 140.76C355.168 140.76 355.195 140.869 355.195 141.088C355.214 141.307 355.204 141.461 355.168 141.553C354.257 141.516 353.536 141.489 353.008 141.471C352.497 141.434 352.169 141.416 352.023 141.416L348.879 141.553C348.824 141.498 348.797 141.361 348.797 141.142C348.797 140.887 348.824 140.76 348.879 140.76C349.061 140.76 349.316 140.732 349.645 140.678C349.973 140.605 350.283 140.523 350.574 140.432C350.866 140.322 351.03 140.213 351.066 140.103C351.249 139.666 351.34 138.809 351.34 137.533V126.787C351.34 125.857 351.276 125.174 351.148 124.736C351.112 124.627 350.948 124.536 350.656 124.463C350.383 124.372 350.082 124.299 349.754 124.244C349.426 124.189 349.171 124.162 348.988 124.162C348.915 124.162 348.879 124.043 348.879 123.807C348.879 123.588 348.915 123.442 348.988 123.369C349.699 123.387 350.283 123.405 350.738 123.424C351.212 123.424 351.559 123.424 351.777 123.424C352.251 123.424 352.671 123.424 353.035 123.424C353.4 123.405 353.71 123.387 353.965 123.369C354.311 123.989 355.25 125.42 356.781 127.662C358.331 129.886 360.482 132.921 363.234 136.767C363.289 136.458 363.316 136.084 363.316 135.646V127.142C363.316 125.994 363.253 125.192 363.125 124.736C363.089 124.627 362.924 124.527 362.633 124.435C362.341 124.344 362.031 124.271 361.703 124.217C361.375 124.144 361.129 124.107 360.965 124.107C360.892 124.107 360.855 123.998 360.855 123.779C360.855 123.579 360.892 123.442 360.965 123.369C361.129 123.369 361.402 123.387 361.785 123.424C362.168 123.442 362.578 123.469 363.016 123.506C363.471 123.524 363.863 123.533 364.191 123.533C364.665 123.533 365.267 123.506 365.996 123.451C366.707 123.396 367.126 123.369 367.254 123.369C367.29 123.515 367.309 123.652 367.309 123.779C367.309 123.998 367.272 124.107 367.199 124.107C367.09 124.107 366.862 124.144 366.516 124.217C366.169 124.29 365.841 124.372 365.531 124.463C365.24 124.554 365.076 124.645 365.039 124.736C364.966 125.028 364.911 125.383 364.875 125.803C364.839 126.222 364.82 126.714 364.82 127.279V137.67C364.82 138.8 364.848 140.076 364.902 141.498C364.829 141.571 364.656 141.607 364.383 141.607ZM367.801 141.553C367.728 141.48 367.691 141.343 367.691 141.142C367.691 140.887 367.728 140.76 367.801 140.76C368.02 140.76 368.302 140.714 368.648 140.623C368.995 140.532 369.232 140.404 369.359 140.24C369.56 139.985 369.76 139.648 369.961 139.228C370.18 138.809 370.408 138.29 370.645 137.67L375.402 125.447C375.512 125.174 375.576 124.982 375.594 124.873C375.63 124.764 375.658 124.672 375.676 124.599C375.712 124.508 375.776 124.363 375.867 124.162C375.995 123.907 376.122 123.706 376.25 123.56C376.378 123.415 376.587 123.342 376.879 123.342L377.125 123.424L382.594 137.861C382.758 138.28 382.904 138.654 383.031 138.982C383.177 139.31 383.296 139.593 383.387 139.83C383.46 140.012 383.615 140.176 383.852 140.322C384.107 140.45 384.362 140.559 384.617 140.65C384.891 140.723 385.1 140.76 385.246 140.76C385.319 140.76 385.355 140.933 385.355 141.279C385.355 141.316 385.346 141.361 385.328 141.416C385.328 141.452 385.319 141.498 385.301 141.553C384.389 141.516 383.678 141.489 383.168 141.471C382.676 141.434 382.384 141.416 382.293 141.416L379.121 141.553C379.048 141.48 379.012 141.334 379.012 141.115C379.03 140.878 379.076 140.76 379.148 140.76C379.367 140.76 379.641 140.714 379.969 140.623C380.297 140.532 380.488 140.413 380.543 140.267C380.561 140.195 380.57 140.122 380.57 140.049C380.589 139.976 380.598 139.903 380.598 139.83C380.598 139.593 380.57 139.32 380.516 139.01C380.461 138.682 380.397 138.426 380.324 138.244L379.094 134.853C379.039 134.78 378.984 134.744 378.93 134.744C378.219 134.689 377.526 134.662 376.852 134.662C376.378 134.662 375.849 134.68 375.266 134.717C374.701 134.735 374.072 134.762 373.379 134.799L373.242 134.881L372.066 137.889C371.884 138.344 371.757 138.727 371.684 139.037C371.629 139.347 371.602 139.593 371.602 139.775C371.602 140.03 371.674 140.213 371.82 140.322C371.984 140.45 372.249 140.559 372.613 140.65C372.978 140.723 373.242 140.76 373.406 140.76C373.461 140.76 373.488 140.869 373.488 141.088C373.507 141.307 373.497 141.461 373.461 141.553L370.645 141.416C370.134 141.379 369.633 141.389 369.141 141.443C368.667 141.48 368.22 141.516 367.801 141.553ZM375.895 133.349C376.715 133.349 377.544 133.322 378.383 133.267L378.465 133.131L376.25 127.088L373.898 133.185C373.898 133.258 373.917 133.295 373.953 133.295C374.427 133.313 374.819 133.331 375.129 133.349C375.457 133.349 375.712 133.349 375.895 133.349Z" fill="black"/>
</svg>
