<svg width="406" height="151" viewBox="0 0 406 151" fill="none" xmlns="http://www.w3.org/2000/svg">
<path d="M36.8476 23.6516H57.0301V112.752H36.8476V23.6516ZM73.1636 23.6516H103.741C108.826 23.6516 113.529 24.3491 117.849 25.7441C122.214 27.1391 125.724 29.4341 128.379 32.6291C131.079 35.7791 132.429 40.0541 132.429 45.4541C132.429 49.0091 131.754 52.1816 130.404 54.9716C129.099 57.7616 127.344 60.0566 125.139 61.8566C122.979 63.6116 120.616 64.7816 118.051 65.3666C120.301 65.6366 122.484 66.2891 124.599 67.3241C126.759 68.3141 128.694 69.7091 130.404 71.5091C132.159 73.2641 133.531 75.4691 134.521 78.1241C135.556 80.7341 136.074 83.8391 136.074 87.4391C136.074 92.4341 134.949 96.8441 132.699 100.669C130.494 104.449 127.254 107.419 122.979 109.579C118.749 111.694 113.551 112.752 107.386 112.752H73.1636V23.6516ZM93.3461 96.6191H102.526C105.406 96.6191 107.746 96.1916 109.546 95.3366C111.391 94.4366 112.741 93.1766 113.596 91.5566C114.451 89.8916 114.879 87.9116 114.879 85.6166C114.879 82.0166 113.754 79.3841 111.504 77.7191C109.299 76.0091 106.194 75.1541 102.189 75.1541H93.3461V96.6191ZM93.3461 59.3591H101.514C103.899 59.3591 105.879 58.9316 107.454 58.0766C109.074 57.2216 110.289 56.0291 111.099 54.4991C111.954 52.9241 112.381 51.1241 112.381 49.0991C112.381 45.4541 111.346 43.0016 109.276 41.7416C107.206 40.4366 104.371 39.7841 100.771 39.7841H93.3461V59.3591ZM148.169 23.6516H180.569C186.284 23.6516 191.436 24.6641 196.026 26.6891C200.616 28.6691 204.261 31.7066 206.961 35.8016C209.706 39.8516 211.079 44.9366 211.079 51.0566C211.079 57.1316 209.706 62.3066 206.961 66.5816C204.261 70.8116 200.616 74.0516 196.026 76.3016C191.436 78.5066 186.284 79.6091 180.569 79.6091H168.351V112.752H148.169V23.6516ZM168.351 63.6791H174.966C177.711 63.6791 180.164 63.2741 182.324 62.4641C184.529 61.6541 186.284 60.3716 187.589 58.6166C188.894 56.8166 189.546 54.4541 189.546 51.5291C189.546 48.5591 188.894 46.2191 187.589 44.5091C186.284 42.7541 184.529 41.4941 182.324 40.7291C180.164 39.9641 177.711 39.5816 174.966 39.5816H168.351V63.6791ZM241.392 23.6516H261.439L296.607 112.752H275.074L268.594 94.8641H234.304L227.757 112.752H206.157L241.392 23.6516ZM241.054 77.1791H261.912L251.584 47.9516H251.382L241.054 77.1791Z" fill="#0D5131"/>
<rect x="328.666" y="0.5" width="20.0363" height="110.523" fill="#0D5131" stroke="#0D5131"/>
<rect x="303.422" y="23.1993" width="72.6269" height="16.7647" fill="#0D5131" stroke="#0D5131"/>
<path d="M360.876 31.5817C360.876 42.8956 351.062 52.281 338.684 52.281C326.306 52.281 316.492 42.8956 316.492 31.5817C316.492 20.2678 326.306 10.8824 338.684 10.8824C351.062 10.8824 360.876 20.2678 360.876 31.5817Z" stroke="#0D5131" stroke-width="4"/>
<path d="M9.43359 141.662C8.23047 141.662 7.10026 141.425 6.04297 140.951C4.98568 140.477 4.05599 139.83 3.25391 139.01C2.45182 138.171 1.82292 137.214 1.36719 136.139C0.911458 135.045 0.683594 133.887 0.683594 132.666C0.683594 131.372 0.911458 130.159 1.36719 129.029C1.82292 127.881 2.45182 126.878 3.25391 126.021C4.07422 125.146 5.03125 124.463 6.125 123.971C7.23698 123.478 8.43099 123.232 9.70703 123.232C10.7096 123.232 11.7305 123.305 12.7695 123.451C13.8086 123.579 14.875 123.77 15.9688 124.025C16.0781 124.062 16.1966 124.672 16.3242 125.857C16.3971 126.532 16.4518 127.06 16.4883 127.443C16.543 127.826 16.5247 128.099 16.4336 128.264C16.3424 128.409 16.1237 128.482 15.7773 128.482L15.3398 128.4C15.2487 128.072 15.1029 127.726 14.9023 127.361C14.7018 126.997 14.3919 126.605 13.9727 126.185C13.5716 125.766 13.0065 125.429 12.2773 125.174C11.5482 124.9 10.737 124.764 9.84375 124.764C6.58073 124.764 4.94922 127.206 4.94922 132.092C4.94922 133.605 5.16797 134.981 5.60547 136.221C6.0612 137.442 6.71745 138.408 7.57422 139.119C8.44922 139.83 9.4974 140.185 10.7188 140.185C12.0677 140.185 13.2344 139.693 14.2188 138.709C14.5104 138.417 14.7292 138.089 14.875 137.724C15.0391 137.342 15.1576 137.004 15.2305 136.713C15.3216 136.421 15.4036 136.275 15.4766 136.275C16.224 136.275 16.6341 136.366 16.707 136.549C16.707 136.676 16.6615 136.95 16.5703 137.369C16.4974 137.77 16.3971 138.217 16.2695 138.709C16.1602 139.183 16.0417 139.602 15.9141 139.967C15.7865 140.313 15.6771 140.504 15.5859 140.541C13.5078 141.288 11.457 141.662 9.43359 141.662ZM27.2617 141.607C25.7852 141.607 24.4909 141.307 23.3789 140.705C22.2669 140.085 21.401 139.137 20.7812 137.861C20.1797 136.585 19.8789 134.954 19.8789 132.967V127.197C19.8789 126.03 19.806 125.32 19.6602 125.064C19.6055 124.955 19.4596 124.855 19.2227 124.764C19.0039 124.654 18.776 124.563 18.5391 124.49C18.3021 124.417 18.1107 124.381 17.9648 124.381C17.8919 124.381 17.8555 124.226 17.8555 123.916C17.8555 123.588 17.8737 123.405 17.9102 123.369L21.875 123.533C22.0573 123.551 22.4674 123.542 23.1055 123.506C23.7435 123.469 24.6094 123.424 25.7031 123.369C25.7578 123.533 25.7852 123.697 25.7852 123.861C25.7852 124.208 25.7487 124.381 25.6758 124.381C25.5664 124.381 25.375 124.417 25.1016 124.49C24.8281 124.563 24.5638 124.654 24.3086 124.764C24.0716 124.855 23.9349 124.946 23.8984 125.037C23.7708 125.493 23.707 126.267 23.707 127.361V133.842C23.707 135.519 24.0807 136.868 24.8281 137.889C25.5938 138.909 26.6237 139.42 27.918 139.42C29.2669 139.42 30.3698 138.982 31.2266 138.107C32.1016 137.214 32.5391 135.728 32.5391 133.65V127.142C32.5391 126.085 32.4206 125.429 32.1836 125.174C32.0742 125.028 31.8737 124.9 31.582 124.791C31.3086 124.663 31.0169 124.563 30.707 124.49C30.4154 124.417 30.1966 124.381 30.0508 124.381C30.0143 124.381 29.9779 124.308 29.9414 124.162C29.9232 124.016 29.9141 123.861 29.9141 123.697C29.9141 123.515 29.9323 123.405 29.9688 123.369C30.8073 123.442 31.5273 123.497 32.1289 123.533C32.7305 123.57 33.2135 123.588 33.5781 123.588C33.888 123.588 34.2799 123.57 34.7539 123.533C35.2279 123.497 35.6745 123.46 36.0938 123.424C36.5312 123.387 36.8229 123.369 36.9688 123.369C37.0417 123.497 37.0781 123.661 37.0781 123.861C37.0781 124.208 37.0326 124.381 36.9414 124.381C35.957 124.381 35.2005 124.682 34.6719 125.283C34.4167 125.593 34.2891 126.258 34.2891 127.279V133.514C34.2891 135.282 33.9883 136.767 33.3867 137.971C32.8034 139.174 31.9831 140.085 30.9258 140.705C29.8685 141.307 28.6471 141.607 27.2617 141.607ZM38.3086 141.58C38.2357 141.507 38.1992 141.352 38.1992 141.115C38.1992 140.751 38.2357 140.568 38.3086 140.568C38.4544 140.568 38.6641 140.541 38.9375 140.486C39.2109 140.432 39.4661 140.359 39.7031 140.267C39.9401 140.158 40.0768 140.058 40.1133 139.967C40.2227 139.547 40.2773 138.745 40.2773 137.56V127.115C40.2773 126.003 40.2044 125.32 40.0586 125.064C40.0039 124.955 39.8581 124.855 39.6211 124.764C39.4023 124.654 39.1745 124.563 38.9375 124.49C38.7005 124.417 38.5091 124.381 38.3633 124.381C38.2904 124.381 38.2539 124.226 38.2539 123.916C38.2539 123.588 38.2721 123.405 38.3086 123.369L42.2734 123.533C42.4557 123.551 42.8659 123.542 43.5039 123.506C44.1419 123.469 45.0078 123.424 46.1016 123.369C46.1562 123.533 46.1836 123.697 46.1836 123.861C46.1836 124.208 46.1471 124.381 46.0742 124.381C45.9648 124.381 45.7734 124.417 45.5 124.49C45.2266 124.563 44.9622 124.654 44.707 124.764C44.4701 124.855 44.3333 124.946 44.2969 125.037C44.224 125.274 44.1693 125.584 44.1328 125.967C44.1146 126.331 44.1055 126.751 44.1055 127.224V137.588C44.1055 138.463 44.1784 139.119 44.3242 139.557C44.3971 139.848 45.0169 139.994 46.1836 139.994H46.8945C48.0247 139.994 49.0456 139.757 49.957 139.283C50.2669 139.119 50.6133 138.809 50.9961 138.353C51.3971 137.898 51.707 137.387 51.9258 136.822C51.9622 136.713 52.0898 136.658 52.3086 136.658C52.7461 136.658 53.0195 136.713 53.1289 136.822C52.2174 139.338 51.7253 140.905 51.6523 141.525C51.1419 141.525 50.4766 141.516 49.6562 141.498C48.8542 141.498 47.8971 141.489 46.7852 141.471C45.6732 141.452 44.7435 141.434 43.9961 141.416C43.2669 141.398 42.7018 141.398 42.3008 141.416L38.3086 141.58ZM58.9805 141.58C58.9076 141.507 58.8711 141.361 58.8711 141.142C58.8711 140.76 58.8984 140.568 58.9531 140.568C59.099 140.568 59.3086 140.532 59.582 140.459C59.8555 140.386 60.1107 140.295 60.3477 140.185C60.5846 140.076 60.7214 139.976 60.7578 139.885C60.8307 139.629 60.8763 139.329 60.8945 138.982C60.931 138.636 60.9492 138.235 60.9492 137.779V127.881C60.9492 126.459 60.8763 125.62 60.7305 125.365L60.5938 125.119C60.5208 125.046 60.2839 124.991 59.8828 124.955C59.4818 124.9 59.0169 124.873 58.4883 124.873C57.7409 124.873 57.1302 125.083 56.6562 125.502C56.1823 125.903 55.8177 126.586 55.5625 127.553C55.526 127.644 55.4349 127.689 55.2891 127.689C54.888 127.689 54.6237 127.626 54.4961 127.498L55.0156 123.041C55.4167 123.132 55.7721 123.205 56.082 123.26C56.3919 123.314 56.6654 123.342 56.9023 123.342C57.832 123.342 58.8255 123.369 59.8828 123.424C60.9583 123.478 61.9609 123.506 62.8906 123.506C63.8203 123.506 64.8229 123.478 65.8984 123.424C66.974 123.369 67.9766 123.342 68.9062 123.342C69.1432 123.342 69.4167 123.314 69.7266 123.26C70.0365 123.205 70.3919 123.132 70.793 123.041L71.3125 127.525C71.1849 127.653 70.9206 127.717 70.5195 127.717C70.3737 127.717 70.2826 127.671 70.2461 127.58C69.7904 125.775 68.8151 124.873 67.3203 124.873C65.862 124.873 65.0872 125.037 64.9961 125.365C64.9232 125.62 64.8685 125.948 64.832 126.349C64.7956 126.751 64.7773 127.234 64.7773 127.799V137.67C64.7773 138.126 64.7956 138.536 64.832 138.9C64.8685 139.265 64.9232 139.593 64.9961 139.885C65.0326 139.958 65.1602 140.049 65.3789 140.158C65.6159 140.267 65.862 140.368 66.1172 140.459C66.3906 140.532 66.582 140.568 66.6914 140.568C66.7643 140.568 66.8008 140.741 66.8008 141.088C66.8008 141.27 66.7826 141.434 66.7461 141.58C66.6732 141.58 66.5 141.571 66.2266 141.553C65.9531 141.534 65.5794 141.507 65.1055 141.471C64.6315 141.434 64.2122 141.407 63.8477 141.389C63.4831 141.37 63.1823 141.361 62.9453 141.361C62.6172 141.361 62.1706 141.379 61.6055 141.416C61.0404 141.452 60.5026 141.48 59.9922 141.498C59.5 141.534 59.1628 141.562 58.9805 141.58ZM72.8438 141.58C72.7708 141.507 72.7344 141.361 72.7344 141.142C72.7344 140.76 72.7617 140.568 72.8164 140.568C72.9622 140.568 73.1719 140.532 73.4453 140.459C73.7188 140.386 73.974 140.295 74.2109 140.185C74.4479 140.076 74.5846 139.976 74.6211 139.885C74.694 139.629 74.7396 139.32 74.7578 138.955C74.7943 138.59 74.8125 138.171 74.8125 137.697V127.197C74.8125 126.03 74.7396 125.32 74.5938 125.064C74.5391 124.955 74.3932 124.855 74.1562 124.764C73.9375 124.654 73.7096 124.563 73.4727 124.49C73.2357 124.417 73.0443 124.381 72.8984 124.381C72.8255 124.381 72.7891 124.226 72.7891 123.916C72.7891 123.588 72.8073 123.405 72.8438 123.369L74.1562 123.451C74.5573 123.488 74.8854 123.515 75.1406 123.533C75.3958 123.551 75.6419 123.56 75.8789 123.56C76.1341 123.542 76.444 123.533 76.8086 123.533C77.1732 123.533 78.4492 123.478 80.6367 123.369C80.6914 123.533 80.7188 123.697 80.7188 123.861C80.7188 124.208 80.6823 124.381 80.6094 124.381C80.5 124.381 80.3086 124.417 80.0352 124.49C79.7617 124.563 79.4974 124.654 79.2422 124.764C79.0052 124.855 78.8685 124.946 78.832 125.037C78.7773 125.256 78.7318 125.566 78.6953 125.967C78.6589 126.349 78.6406 126.678 78.6406 126.951V137.478C78.6406 137.989 78.6589 138.445 78.6953 138.846C78.7318 139.247 78.7865 139.593 78.8594 139.885C78.8958 139.958 79.0234 140.049 79.2422 140.158C79.4792 140.267 79.7253 140.368 79.9805 140.459C80.2539 140.532 80.4453 140.568 80.5547 140.568C80.6276 140.568 80.6641 140.741 80.6641 141.088C80.6641 141.27 80.6458 141.434 80.6094 141.58C80.5365 141.58 80.3633 141.571 80.0898 141.553C79.8164 141.534 79.4427 141.507 78.9688 141.471C78.4948 141.434 78.0755 141.407 77.7109 141.389C77.3464 141.37 77.0456 141.361 76.8086 141.361C76.4805 141.361 76.0339 141.379 75.4688 141.416C74.9036 141.452 74.3659 141.48 73.8555 141.498C73.3633 141.534 73.026 141.562 72.8438 141.58ZM91.1641 141.744C90.9089 141.744 90.6992 141.626 90.5352 141.389L84.9297 127.525L84.0273 125.283C83.9544 125.083 83.7904 124.918 83.5352 124.791C83.2799 124.663 83.0065 124.563 82.7148 124.49C82.4414 124.417 82.2135 124.381 82.0312 124.381C81.9583 124.381 81.9219 124.226 81.9219 123.916C81.9219 123.624 81.9401 123.442 81.9766 123.369L83.6719 123.478C84.1823 123.515 84.6198 123.542 84.9844 123.56C85.3672 123.579 85.6771 123.588 85.9141 123.588L90.043 123.369C90.1159 123.442 90.1523 123.624 90.1523 123.916C90.1523 124.226 90.1159 124.381 90.043 124.381C89.8424 124.381 89.5964 124.417 89.3047 124.49C89.013 124.563 88.7578 124.672 88.5391 124.818C88.3385 124.964 88.2383 125.146 88.2383 125.365C88.2383 125.511 88.4479 126.113 88.8672 127.17L92.5312 136.193L96.3867 127.197C96.7513 126.359 96.9336 125.739 96.9336 125.338C96.9336 125.064 96.7422 124.836 96.3594 124.654C95.9948 124.472 95.5391 124.381 94.9922 124.381C94.9375 124.344 94.9102 124.198 94.9102 123.943C94.9102 123.706 94.9284 123.515 94.9648 123.369C95.7305 123.424 96.3047 123.469 96.6875 123.506C97.0703 123.542 97.3438 123.57 97.5078 123.588C97.6901 123.588 97.8359 123.588 97.9453 123.588C98.0547 123.588 98.2096 123.579 98.4102 123.56C98.6107 123.542 98.9206 123.515 99.3398 123.478C99.7773 123.442 100.415 123.405 101.254 123.369C101.327 123.442 101.363 123.579 101.363 123.779C101.363 124.162 101.345 124.353 101.309 124.353C101.108 124.353 100.789 124.435 100.352 124.599C99.9141 124.745 99.5586 124.928 99.2852 125.146C99.1211 125.31 98.7747 125.976 98.2461 127.142L92.3398 140.732C92.194 141.042 92.0026 141.288 91.7656 141.471C91.5469 141.653 91.3464 141.744 91.1641 141.744ZM97.7266 141.58C97.6536 141.507 97.6172 141.37 97.6172 141.17C97.6172 140.787 97.6354 140.596 97.6719 140.596C97.8177 140.596 98.0365 140.55 98.3281 140.459C98.6198 140.368 98.9023 140.258 99.1758 140.131C99.4674 139.985 99.6497 139.848 99.7227 139.721C99.8685 139.502 100.023 139.238 100.188 138.928C100.352 138.599 100.47 138.335 100.543 138.135L100.68 137.807L106.723 123.916C106.923 123.442 107.26 123.205 107.734 123.205C108.008 123.205 108.227 123.323 108.391 123.56L113.996 137.424C114.16 137.843 114.315 138.244 114.461 138.627C114.625 138.991 114.771 139.338 114.898 139.666C114.971 139.848 115.135 140.012 115.391 140.158C115.646 140.286 115.919 140.386 116.211 140.459C116.521 140.532 116.758 140.568 116.922 140.568C116.995 140.568 117.031 140.723 117.031 141.033C117.031 141.325 117.013 141.507 116.977 141.58L115.309 141.471C114.78 141.434 114.324 141.407 113.941 141.389C113.559 141.352 113.249 141.343 113.012 141.361L108.883 141.58C108.81 141.507 108.773 141.316 108.773 141.006C108.773 140.714 108.81 140.568 108.883 140.568C109.284 140.568 109.694 140.486 110.113 140.322C110.533 140.14 110.742 139.903 110.742 139.611C110.742 139.593 110.688 139.429 110.578 139.119C110.487 138.809 110.314 138.363 110.059 137.779L109.238 135.783C109.165 135.71 109.102 135.674 109.047 135.674C108.865 135.655 108.555 135.646 108.117 135.646C107.68 135.646 107.115 135.646 106.422 135.646C105.82 135.646 105.283 135.646 104.809 135.646C104.353 135.646 103.97 135.655 103.66 135.674C103.587 135.674 103.523 135.719 103.469 135.81L102.566 137.889C102.257 138.618 102.074 139.146 102.02 139.474C101.983 139.803 102.147 140.058 102.512 140.24C102.84 140.404 103.122 140.504 103.359 140.541C103.615 140.559 103.833 140.568 104.016 140.568C104.07 140.586 104.098 140.732 104.098 141.006C104.098 141.243 104.079 141.434 104.043 141.58C103.223 141.525 102.621 141.48 102.238 141.443C101.874 141.407 101.6 141.389 101.418 141.389C101.236 141.37 101.035 141.37 100.816 141.389C100.616 141.407 100.288 141.434 99.832 141.471C99.3763 141.489 98.6745 141.525 97.7266 141.58ZM106.422 134.006C106.786 134.006 107.124 134.006 107.434 134.006C107.762 133.988 108.072 133.969 108.363 133.951L108.445 133.814L106.477 128.92L104.344 133.814C104.344 133.887 104.362 133.924 104.398 133.924C104.945 133.978 105.62 134.006 106.422 134.006ZM134.176 141.607C133.975 141.607 133.693 141.398 133.328 140.978L122.199 127.142V137.615C122.199 138.581 122.272 139.228 122.418 139.557C122.527 139.757 122.746 139.939 123.074 140.103C123.402 140.249 123.74 140.359 124.086 140.432C124.432 140.504 124.697 140.541 124.879 140.541C124.915 140.541 124.943 140.623 124.961 140.787C124.979 140.933 124.988 141.088 124.988 141.252C124.988 141.416 124.97 141.525 124.934 141.58C124.059 141.58 123.311 141.543 122.691 141.471C122.09 141.398 121.607 141.361 121.242 141.361C120.805 141.361 120.458 141.37 120.203 141.389C119.948 141.407 119.656 141.434 119.328 141.471C119.018 141.507 118.526 141.543 117.852 141.58C117.797 141.525 117.77 141.361 117.77 141.088C117.77 140.741 117.797 140.568 117.852 140.568C118.271 140.568 118.708 140.486 119.164 140.322C119.638 140.14 119.975 139.876 120.176 139.529C120.358 139.238 120.449 138.572 120.449 137.533V126.787C120.449 125.839 120.312 125.192 120.039 124.846C119.984 124.754 119.811 124.682 119.52 124.627C119.246 124.554 118.945 124.499 118.617 124.463C118.307 124.408 118.061 124.381 117.879 124.381C117.842 124.381 117.806 124.308 117.77 124.162C117.751 124.016 117.742 123.861 117.742 123.697C117.76 123.515 117.788 123.405 117.824 123.369L119.574 123.478C119.993 123.515 120.367 123.542 120.695 123.56C121.042 123.579 121.333 123.588 121.57 123.588C121.88 123.588 122.254 123.57 122.691 123.533C123.147 123.497 123.667 123.442 124.25 123.369C124.615 124.098 125.116 124.9 125.754 125.775C126.41 126.65 127.139 127.58 127.941 128.564C128.762 129.53 129.6 130.533 130.457 131.572C131.332 132.611 132.161 133.65 132.945 134.689C132.964 134.616 132.973 134.489 132.973 134.307C132.991 134.124 133 133.878 133 133.568V127.142C133 126.085 132.882 125.429 132.645 125.174C132.535 125.028 132.335 124.9 132.043 124.791C131.77 124.663 131.478 124.563 131.168 124.49C130.876 124.417 130.658 124.381 130.512 124.381C130.475 124.381 130.439 124.308 130.402 124.162C130.384 124.016 130.375 123.861 130.375 123.697C130.375 123.515 130.393 123.405 130.43 123.369C131.268 123.442 131.988 123.497 132.59 123.533C133.191 123.57 133.674 123.588 134.039 123.588C134.349 123.588 134.741 123.57 135.215 123.533C135.689 123.497 136.135 123.46 136.555 123.424C136.992 123.387 137.284 123.369 137.43 123.369C137.503 123.497 137.539 123.661 137.539 123.861C137.539 124.208 137.493 124.381 137.402 124.381C136.418 124.381 135.661 124.682 135.133 125.283C134.878 125.593 134.75 126.258 134.75 127.279V137.67C134.75 137.998 134.759 138.481 134.777 139.119C134.796 139.757 134.823 140.55 134.859 141.498C134.786 141.571 134.559 141.607 134.176 141.607ZM139.098 141.58C139.025 141.507 138.988 141.352 138.988 141.115C138.988 140.751 139.025 140.568 139.098 140.568C139.243 140.568 139.453 140.541 139.727 140.486C140 140.432 140.255 140.359 140.492 140.267C140.729 140.158 140.866 140.058 140.902 139.967C141.012 139.547 141.066 138.745 141.066 137.56V127.224C141.066 126.204 141.012 125.493 140.902 125.092C140.866 124.982 140.72 124.873 140.465 124.764C140.228 124.636 139.973 124.536 139.699 124.463C139.426 124.372 139.216 124.326 139.07 124.326C138.997 124.326 138.961 124.162 138.961 123.834C138.961 123.542 138.988 123.369 139.043 123.314C139.772 123.351 140.465 123.387 141.121 123.424C141.796 123.442 142.443 123.451 143.062 123.451H147.82C149.297 123.451 150.618 123.688 151.785 124.162C152.97 124.636 153.973 125.283 154.793 126.103C155.613 126.924 156.233 127.863 156.652 128.92C157.09 129.977 157.309 131.098 157.309 132.283C157.309 134.033 156.926 135.61 156.16 137.014C155.395 138.399 154.301 139.502 152.879 140.322C151.457 141.142 149.762 141.553 147.793 141.553C147.611 141.553 147.337 141.543 146.973 141.525C146.626 141.525 146.189 141.516 145.66 141.498C145.132 141.461 144.648 141.434 144.211 141.416C143.773 141.398 143.4 141.398 143.09 141.416L139.098 141.58ZM148.23 140.021C149.762 140.021 150.947 139.365 151.785 138.053C152.624 136.74 153.043 134.78 153.043 132.174C153.043 130.825 152.842 129.613 152.441 128.537C152.04 127.443 151.466 126.577 150.719 125.939C149.99 125.301 149.096 124.982 148.039 124.982H147.902C146.353 124.982 145.469 125.128 145.25 125.42C145.013 125.73 144.895 126.304 144.895 127.142V137.752C144.895 138.937 144.977 139.575 145.141 139.666C145.542 139.903 146.572 140.021 148.23 140.021ZM161.465 139.037C159.733 137.214 158.867 135.036 158.867 132.502C158.867 131.226 159.095 130.032 159.551 128.92C160.007 127.79 160.635 126.805 161.438 125.967C162.258 125.11 163.197 124.445 164.254 123.971C165.311 123.478 166.441 123.232 167.645 123.232C168.848 123.232 169.978 123.478 171.035 123.971C172.111 124.445 173.049 125.11 173.852 125.967C174.654 126.805 175.283 127.79 175.738 128.92C176.212 130.032 176.449 131.226 176.449 132.502C176.449 135.036 175.583 137.214 173.852 139.037C172.667 140.277 171.336 141.097 169.859 141.498C168.383 141.917 166.906 141.917 165.43 141.498C163.971 141.097 162.65 140.277 161.465 139.037ZM168.082 140.213C168.993 140.213 169.75 139.894 170.352 139.256C170.971 138.618 171.427 137.761 171.719 136.685C172.029 135.592 172.184 134.37 172.184 133.021C172.184 132.019 172.102 131.062 171.938 130.15C171.792 129.239 171.546 128.364 171.199 127.525C170.853 126.668 170.342 125.994 169.668 125.502C168.993 125.01 168.182 124.764 167.234 124.764C166.268 124.764 165.466 125.11 164.828 125.803C164.19 126.514 163.743 127.379 163.488 128.4C163.251 129.421 163.133 130.588 163.133 131.9C163.133 133.76 163.488 135.555 164.199 137.287C164.564 138.162 165.074 138.873 165.73 139.42C166.405 139.948 167.189 140.213 168.082 140.213ZM183.395 141.58C183.322 141.507 183.285 141.37 183.285 141.17C183.285 140.787 183.303 140.596 183.34 140.596C183.486 140.596 183.704 140.55 183.996 140.459C184.288 140.368 184.57 140.258 184.844 140.131C185.135 139.985 185.318 139.848 185.391 139.721C185.536 139.502 185.691 139.238 185.855 138.928C186.02 138.599 186.138 138.335 186.211 138.135L186.348 137.807L192.391 123.916C192.591 123.442 192.928 123.205 193.402 123.205C193.676 123.205 193.895 123.323 194.059 123.56L199.664 137.424C199.828 137.843 199.983 138.244 200.129 138.627C200.293 138.991 200.439 139.338 200.566 139.666C200.639 139.848 200.803 140.012 201.059 140.158C201.314 140.286 201.587 140.386 201.879 140.459C202.189 140.532 202.426 140.568 202.59 140.568C202.663 140.568 202.699 140.723 202.699 141.033C202.699 141.325 202.681 141.507 202.645 141.58L200.977 141.471C200.448 141.434 199.992 141.407 199.609 141.389C199.227 141.352 198.917 141.343 198.68 141.361L194.551 141.58C194.478 141.507 194.441 141.316 194.441 141.006C194.441 140.714 194.478 140.568 194.551 140.568C194.952 140.568 195.362 140.486 195.781 140.322C196.201 140.14 196.41 139.903 196.41 139.611C196.41 139.593 196.355 139.429 196.246 139.119C196.155 138.809 195.982 138.363 195.727 137.779L194.906 135.783C194.833 135.71 194.77 135.674 194.715 135.674C194.533 135.655 194.223 135.646 193.785 135.646C193.348 135.646 192.783 135.646 192.09 135.646C191.488 135.646 190.951 135.646 190.477 135.646C190.021 135.646 189.638 135.655 189.328 135.674C189.255 135.674 189.191 135.719 189.137 135.81L188.234 137.889C187.924 138.618 187.742 139.146 187.688 139.474C187.651 139.803 187.815 140.058 188.18 140.24C188.508 140.404 188.79 140.504 189.027 140.541C189.283 140.559 189.501 140.568 189.684 140.568C189.738 140.586 189.766 140.732 189.766 141.006C189.766 141.243 189.747 141.434 189.711 141.58C188.891 141.525 188.289 141.48 187.906 141.443C187.542 141.407 187.268 141.389 187.086 141.389C186.904 141.37 186.703 141.37 186.484 141.389C186.284 141.407 185.956 141.434 185.5 141.471C185.044 141.489 184.342 141.525 183.395 141.58ZM192.09 134.006C192.454 134.006 192.792 134.006 193.102 134.006C193.43 133.988 193.74 133.969 194.031 133.951L194.113 133.814L192.145 128.92L190.012 133.814C190.012 133.887 190.03 133.924 190.066 133.924C190.613 133.978 191.288 134.006 192.09 134.006ZM214.895 141.744C214.165 141.744 213.372 141.68 212.516 141.553C211.659 141.443 210.72 141.27 209.699 141.033C209.608 140.632 209.508 140.131 209.398 139.529C209.307 138.928 209.225 138.344 209.152 137.779C209.098 137.196 209.07 136.767 209.07 136.494C209.125 136.312 209.289 136.221 209.562 136.221C210.128 136.221 210.419 136.275 210.438 136.385C210.547 136.932 210.793 137.506 211.176 138.107C211.559 138.691 212.023 139.183 212.57 139.584C213.135 139.985 213.728 140.185 214.348 140.185C216.152 140.185 217.055 139.192 217.055 137.205C217.055 136.676 216.845 136.193 216.426 135.756C216.025 135.318 215.551 134.926 215.004 134.58C214.475 134.234 214.02 133.933 213.637 133.678L212.816 133.131C212.197 132.711 211.613 132.283 211.066 131.846C210.52 131.39 210.073 130.87 209.727 130.287C209.398 129.685 209.234 128.956 209.234 128.099C209.234 127.17 209.517 126.331 210.082 125.584C210.647 124.836 211.376 124.244 212.27 123.807C213.163 123.369 214.092 123.15 215.059 123.15C215.441 123.15 215.833 123.178 216.234 123.232C216.654 123.287 217.009 123.342 217.301 123.396C217.848 123.506 218.312 123.615 218.695 123.724C219.096 123.816 219.415 123.879 219.652 123.916C219.743 124.809 219.816 125.629 219.871 126.377C219.926 127.124 219.953 127.817 219.953 128.455C219.88 128.637 219.743 128.728 219.543 128.728C218.996 128.728 218.714 128.665 218.695 128.537C218.622 127.917 218.422 127.316 218.094 126.732C217.766 126.149 217.346 125.666 216.836 125.283C216.326 124.882 215.742 124.682 215.086 124.682C214.466 124.682 213.938 124.873 213.5 125.256C213.081 125.639 212.871 126.249 212.871 127.088C212.871 127.835 213.199 128.491 213.855 129.057C214.53 129.622 215.396 130.241 216.453 130.916L217.848 131.791C218.358 132.101 218.841 132.447 219.297 132.83C219.753 133.195 220.126 133.678 220.418 134.279C220.71 134.863 220.855 135.665 220.855 136.685C220.855 137.652 220.573 138.517 220.008 139.283C219.461 140.049 218.732 140.65 217.82 141.088C216.927 141.525 215.952 141.744 214.895 141.744ZM222.004 141.58C221.931 141.507 221.895 141.37 221.895 141.17C221.895 140.787 221.913 140.596 221.949 140.596C222.095 140.596 222.314 140.55 222.605 140.459C222.897 140.368 223.18 140.258 223.453 140.131C223.745 139.985 223.927 139.848 224 139.721C224.146 139.502 224.301 139.238 224.465 138.928C224.629 138.599 224.747 138.335 224.82 138.135L224.957 137.807L231 123.916C231.201 123.442 231.538 123.205 232.012 123.205C232.285 123.205 232.504 123.323 232.668 123.56L238.273 137.424C238.438 137.843 238.592 138.244 238.738 138.627C238.902 138.991 239.048 139.338 239.176 139.666C239.249 139.848 239.413 140.012 239.668 140.158C239.923 140.286 240.197 140.386 240.488 140.459C240.798 140.532 241.035 140.568 241.199 140.568C241.272 140.568 241.309 140.723 241.309 141.033C241.309 141.325 241.29 141.507 241.254 141.58L239.586 141.471C239.057 141.434 238.602 141.407 238.219 141.389C237.836 141.352 237.526 141.343 237.289 141.361L233.16 141.58C233.087 141.507 233.051 141.316 233.051 141.006C233.051 140.714 233.087 140.568 233.16 140.568C233.561 140.568 233.971 140.486 234.391 140.322C234.81 140.14 235.02 139.903 235.02 139.611C235.02 139.593 234.965 139.429 234.855 139.119C234.764 138.809 234.591 138.363 234.336 137.779L233.516 135.783C233.443 135.71 233.379 135.674 233.324 135.674C233.142 135.655 232.832 135.646 232.395 135.646C231.957 135.646 231.392 135.646 230.699 135.646C230.098 135.646 229.56 135.646 229.086 135.646C228.63 135.646 228.247 135.655 227.938 135.674C227.865 135.674 227.801 135.719 227.746 135.81L226.844 137.889C226.534 138.618 226.352 139.146 226.297 139.474C226.26 139.803 226.424 140.058 226.789 140.24C227.117 140.404 227.4 140.504 227.637 140.541C227.892 140.559 228.111 140.568 228.293 140.568C228.348 140.586 228.375 140.732 228.375 141.006C228.375 141.243 228.357 141.434 228.32 141.58C227.5 141.525 226.898 141.48 226.516 141.443C226.151 141.407 225.878 141.389 225.695 141.389C225.513 141.37 225.312 141.37 225.094 141.389C224.893 141.407 224.565 141.434 224.109 141.471C223.654 141.489 222.952 141.525 222.004 141.58ZM230.699 134.006C231.064 134.006 231.401 134.006 231.711 134.006C232.039 133.988 232.349 133.969 232.641 133.951L232.723 133.814L230.754 128.92L228.621 133.814C228.621 133.887 228.639 133.924 228.676 133.924C229.223 133.978 229.897 134.006 230.699 134.006ZM234.145 121.564C233.452 121.564 232.577 121.254 231.52 120.635C230.462 120.015 229.587 119.705 228.895 119.705C228.548 119.705 228.147 119.96 227.691 120.471C227.217 120.999 226.944 121.264 226.871 121.264C226.725 121.264 226.652 121.063 226.652 120.662C226.652 120.206 226.816 119.751 227.145 119.295C227.837 118.365 228.639 117.9 229.551 117.9C230.243 117.9 231.118 118.21 232.176 118.83C233.233 119.45 234.108 119.76 234.801 119.76C235.147 119.76 235.539 119.495 235.977 118.967C236.414 118.456 236.678 118.201 236.77 118.201C236.915 118.201 236.988 118.402 236.988 118.803C236.988 119.258 236.824 119.723 236.496 120.197C235.858 121.109 235.074 121.564 234.145 121.564ZM247.844 141.58C247.771 141.507 247.734 141.352 247.734 141.115C247.734 140.751 247.771 140.568 247.844 140.568C247.99 140.568 248.199 140.541 248.473 140.486C248.746 140.432 249.001 140.359 249.238 140.267C249.475 140.158 249.612 140.058 249.648 139.967C249.758 139.547 249.812 138.745 249.812 137.56V127.224C249.812 126.204 249.758 125.493 249.648 125.092C249.612 124.982 249.466 124.873 249.211 124.764C248.974 124.636 248.719 124.536 248.445 124.463C248.172 124.372 247.962 124.326 247.816 124.326C247.743 124.326 247.707 124.162 247.707 123.834C247.707 123.542 247.734 123.369 247.789 123.314C248.518 123.351 249.211 123.387 249.867 123.424C250.542 123.442 251.189 123.451 251.809 123.451H256.566C258.043 123.451 259.365 123.688 260.531 124.162C261.716 124.636 262.719 125.283 263.539 126.103C264.359 126.924 264.979 127.863 265.398 128.92C265.836 129.977 266.055 131.098 266.055 132.283C266.055 134.033 265.672 135.61 264.906 137.014C264.141 138.399 263.047 139.502 261.625 140.322C260.203 141.142 258.508 141.553 256.539 141.553C256.357 141.553 256.083 141.543 255.719 141.525C255.372 141.525 254.935 141.516 254.406 141.498C253.878 141.461 253.395 141.434 252.957 141.416C252.52 141.398 252.146 141.398 251.836 141.416L247.844 141.58ZM256.977 140.021C258.508 140.021 259.693 139.365 260.531 138.053C261.37 136.74 261.789 134.78 261.789 132.174C261.789 130.825 261.589 129.613 261.188 128.537C260.786 127.443 260.212 126.577 259.465 125.939C258.736 125.301 257.842 124.982 256.785 124.982H256.648C255.099 124.982 254.215 125.128 253.996 125.42C253.759 125.73 253.641 126.304 253.641 127.142V137.752C253.641 138.937 253.723 139.575 253.887 139.666C254.288 139.903 255.318 140.021 256.977 140.021ZM270.211 139.037C268.479 137.214 267.613 135.036 267.613 132.502C267.613 131.226 267.841 130.032 268.297 128.92C268.753 127.79 269.382 126.805 270.184 125.967C271.004 125.11 271.943 124.445 273 123.971C274.057 123.478 275.188 123.232 276.391 123.232C277.594 123.232 278.724 123.478 279.781 123.971C280.857 124.445 281.796 125.11 282.598 125.967C283.4 126.805 284.029 127.79 284.484 128.92C284.958 130.032 285.195 131.226 285.195 132.502C285.195 135.036 284.329 137.214 282.598 139.037C281.413 140.277 280.082 141.097 278.605 141.498C277.129 141.917 275.652 141.917 274.176 141.498C272.717 141.097 271.396 140.277 270.211 139.037ZM276.828 140.213C277.74 140.213 278.496 139.894 279.098 139.256C279.717 138.618 280.173 137.761 280.465 136.685C280.775 135.592 280.93 134.37 280.93 133.021C280.93 132.019 280.848 131.062 280.684 130.15C280.538 129.239 280.292 128.364 279.945 127.525C279.599 126.668 279.089 125.994 278.414 125.502C277.74 125.01 276.928 124.764 275.98 124.764C275.014 124.764 274.212 125.11 273.574 125.803C272.936 126.514 272.49 127.379 272.234 128.4C271.997 129.421 271.879 130.588 271.879 131.9C271.879 133.76 272.234 135.555 272.945 137.287C273.31 138.162 273.82 138.873 274.477 139.42C275.151 139.948 275.935 140.213 276.828 140.213ZM295.832 141.607C294.355 141.607 293.061 141.307 291.949 140.705C290.837 140.085 289.971 139.137 289.352 137.861C288.75 136.585 288.449 134.954 288.449 132.967V127.197C288.449 126.03 288.376 125.32 288.23 125.064C288.176 124.955 288.03 124.855 287.793 124.764C287.574 124.654 287.346 124.563 287.109 124.49C286.872 124.417 286.681 124.381 286.535 124.381C286.462 124.381 286.426 124.226 286.426 123.916C286.426 123.588 286.444 123.405 286.48 123.369L290.445 123.533C290.628 123.551 291.038 123.542 291.676 123.506C292.314 123.469 293.18 123.424 294.273 123.369C294.328 123.533 294.355 123.697 294.355 123.861C294.355 124.208 294.319 124.381 294.246 124.381C294.137 124.381 293.945 124.417 293.672 124.49C293.398 124.563 293.134 124.654 292.879 124.764C292.642 124.855 292.505 124.946 292.469 125.037C292.341 125.493 292.277 126.267 292.277 127.361V133.842C292.277 135.519 292.651 136.868 293.398 137.889C294.164 138.909 295.194 139.42 296.488 139.42C297.837 139.42 298.94 138.982 299.797 138.107C300.672 137.214 301.109 135.728 301.109 133.65V127.142C301.109 126.085 300.991 125.429 300.754 125.174C300.645 125.028 300.444 124.9 300.152 124.791C299.879 124.663 299.587 124.563 299.277 124.49C298.986 124.417 298.767 124.381 298.621 124.381C298.585 124.381 298.548 124.308 298.512 124.162C298.493 124.016 298.484 123.861 298.484 123.697C298.484 123.515 298.503 123.405 298.539 123.369C299.378 123.442 300.098 123.497 300.699 123.533C301.301 123.57 301.784 123.588 302.148 123.588C302.458 123.588 302.85 123.57 303.324 123.533C303.798 123.497 304.245 123.46 304.664 123.424C305.102 123.387 305.393 123.369 305.539 123.369C305.612 123.497 305.648 123.661 305.648 123.861C305.648 124.208 305.603 124.381 305.512 124.381C304.527 124.381 303.771 124.682 303.242 125.283C302.987 125.593 302.859 126.258 302.859 127.279V133.514C302.859 135.282 302.559 136.767 301.957 137.971C301.374 139.174 300.553 140.085 299.496 140.705C298.439 141.307 297.217 141.607 295.832 141.607ZM311.199 141.58C311.126 141.507 311.09 141.361 311.09 141.142C311.09 140.76 311.117 140.568 311.172 140.568C311.318 140.568 311.527 140.532 311.801 140.459C312.074 140.386 312.329 140.295 312.566 140.185C312.803 140.076 312.94 139.976 312.977 139.885C313.049 139.629 313.095 139.329 313.113 138.982C313.15 138.636 313.168 138.235 313.168 137.779V127.881C313.168 126.459 313.095 125.62 312.949 125.365L312.812 125.119C312.74 125.046 312.503 124.991 312.102 124.955C311.701 124.9 311.236 124.873 310.707 124.873C309.96 124.873 309.349 125.083 308.875 125.502C308.401 125.903 308.036 126.586 307.781 127.553C307.745 127.644 307.654 127.689 307.508 127.689C307.107 127.689 306.842 127.626 306.715 127.498L307.234 123.041C307.635 123.132 307.991 123.205 308.301 123.26C308.611 123.314 308.884 123.342 309.121 123.342C310.051 123.342 311.044 123.369 312.102 123.424C313.177 123.478 314.18 123.506 315.109 123.506C316.039 123.506 317.042 123.478 318.117 123.424C319.193 123.369 320.195 123.342 321.125 123.342C321.362 123.342 321.635 123.314 321.945 123.26C322.255 123.205 322.611 123.132 323.012 123.041L323.531 127.525C323.404 127.653 323.139 127.717 322.738 127.717C322.592 127.717 322.501 127.671 322.465 127.58C322.009 125.775 321.034 124.873 319.539 124.873C318.081 124.873 317.306 125.037 317.215 125.365C317.142 125.62 317.087 125.948 317.051 126.349C317.014 126.751 316.996 127.234 316.996 127.799V137.67C316.996 138.126 317.014 138.536 317.051 138.9C317.087 139.265 317.142 139.593 317.215 139.885C317.251 139.958 317.379 140.049 317.598 140.158C317.835 140.267 318.081 140.368 318.336 140.459C318.609 140.532 318.801 140.568 318.91 140.568C318.983 140.568 319.02 140.741 319.02 141.088C319.02 141.27 319.001 141.434 318.965 141.58C318.892 141.58 318.719 141.571 318.445 141.553C318.172 141.534 317.798 141.507 317.324 141.471C316.85 141.434 316.431 141.407 316.066 141.389C315.702 141.37 315.401 141.361 315.164 141.361C314.836 141.361 314.389 141.379 313.824 141.416C313.259 141.452 312.721 141.48 312.211 141.498C311.719 141.534 311.382 141.562 311.199 141.58ZM341.688 141.662C340.794 141.662 339.974 141.58 339.227 141.416C338.497 141.234 337.914 141.033 337.477 140.814C337.021 140.596 336.574 140.267 336.137 139.83C335.918 139.611 335.717 139.402 335.535 139.201C335.353 139.001 335.152 138.754 334.934 138.463C334.733 138.153 334.469 137.752 334.141 137.26C333.812 136.749 333.384 136.075 332.855 135.236C332.145 134.161 331.671 133.577 331.434 133.486C331.397 133.468 331.297 133.459 331.133 133.459C330.969 133.459 330.887 133.605 330.887 133.896V137.615C330.887 138.581 330.951 139.329 331.078 139.857C331.115 140.003 331.27 140.131 331.543 140.24C331.816 140.349 332.117 140.432 332.445 140.486C332.773 140.541 333.029 140.568 333.211 140.568C333.284 140.568 333.32 140.741 333.32 141.088C333.32 141.27 333.302 141.434 333.266 141.58C332.172 141.525 331.279 141.48 330.586 141.443C329.893 141.407 329.392 141.398 329.082 141.416L325.09 141.58C325.017 141.507 324.98 141.352 324.98 141.115C324.98 140.751 325.017 140.568 325.09 140.568C325.236 140.568 325.445 140.541 325.719 140.486C325.992 140.432 326.247 140.359 326.484 140.267C326.721 140.158 326.858 140.058 326.895 139.967C327.004 139.547 327.059 138.745 327.059 137.56V127.224C327.059 126.204 327.004 125.493 326.895 125.092C326.858 124.982 326.712 124.873 326.457 124.764C326.22 124.636 325.965 124.536 325.691 124.463C325.418 124.372 325.208 124.326 325.062 124.326C324.99 124.326 324.953 124.162 324.953 123.834C324.953 123.542 324.98 123.369 325.035 123.314C325.874 123.351 326.621 123.387 327.277 123.424C327.952 123.442 328.544 123.451 329.055 123.451C329.93 123.433 330.613 123.424 331.105 123.424C331.598 123.424 331.971 123.424 332.227 123.424C332.482 123.424 332.701 123.424 332.883 123.424C333.612 123.424 334.341 123.515 335.07 123.697C335.818 123.879 336.501 124.162 337.121 124.545C337.741 124.909 338.233 125.383 338.598 125.967C338.98 126.532 339.172 127.215 339.172 128.017C339.172 128.82 339.008 129.567 338.68 130.26C338.352 130.952 337.923 131.536 337.395 132.01C336.884 132.484 336.355 132.812 335.809 132.994C335.663 133.049 335.635 133.149 335.727 133.295C336.128 133.969 336.438 134.48 336.656 134.826C336.875 135.172 337.057 135.455 337.203 135.674C337.367 135.874 337.559 136.129 337.777 136.439C337.996 136.731 338.306 137.178 338.707 137.779C339.017 138.217 339.382 138.654 339.801 139.092C340.238 139.511 340.703 139.866 341.195 140.158C341.706 140.432 342.189 140.568 342.645 140.568C342.717 140.641 342.754 140.805 342.754 141.06C342.754 141.279 342.717 141.461 342.645 141.607C342.517 141.626 342.371 141.635 342.207 141.635C342.061 141.653 341.888 141.662 341.688 141.662ZM332.035 131.955H332.773C333.484 131.955 334.031 131.645 334.414 131.025C334.815 130.405 335.016 129.585 335.016 128.564C335.016 126.14 334.168 124.928 332.473 124.928C331.835 124.928 331.415 125.001 331.215 125.146C330.996 125.31 330.887 126.204 330.887 127.826V130.779C330.887 131.29 330.987 131.618 331.188 131.764C331.406 131.891 331.689 131.955 332.035 131.955ZM343.711 141.58C343.638 141.507 343.602 141.361 343.602 141.142C343.602 140.76 343.629 140.568 343.684 140.568C343.829 140.568 344.039 140.532 344.312 140.459C344.586 140.386 344.841 140.295 345.078 140.185C345.315 140.076 345.452 139.976 345.488 139.885C345.561 139.629 345.607 139.32 345.625 138.955C345.661 138.59 345.68 138.171 345.68 137.697V127.197C345.68 126.03 345.607 125.32 345.461 125.064C345.406 124.955 345.26 124.855 345.023 124.764C344.805 124.654 344.577 124.563 344.34 124.49C344.103 124.417 343.911 124.381 343.766 124.381C343.693 124.381 343.656 124.226 343.656 123.916C343.656 123.588 343.674 123.405 343.711 123.369L345.023 123.451C345.424 123.488 345.753 123.515 346.008 123.533C346.263 123.551 346.509 123.56 346.746 123.56C347.001 123.542 347.311 123.533 347.676 123.533C348.04 123.533 349.316 123.478 351.504 123.369C351.559 123.533 351.586 123.697 351.586 123.861C351.586 124.208 351.549 124.381 351.477 124.381C351.367 124.381 351.176 124.417 350.902 124.49C350.629 124.563 350.365 124.654 350.109 124.764C349.872 124.855 349.736 124.946 349.699 125.037C349.645 125.256 349.599 125.566 349.562 125.967C349.526 126.349 349.508 126.678 349.508 126.951V137.478C349.508 137.989 349.526 138.445 349.562 138.846C349.599 139.247 349.654 139.593 349.727 139.885C349.763 139.958 349.891 140.049 350.109 140.158C350.346 140.267 350.592 140.368 350.848 140.459C351.121 140.532 351.312 140.568 351.422 140.568C351.495 140.568 351.531 140.741 351.531 141.088C351.531 141.27 351.513 141.434 351.477 141.58C351.404 141.58 351.23 141.571 350.957 141.553C350.684 141.534 350.31 141.507 349.836 141.471C349.362 141.434 348.943 141.407 348.578 141.389C348.214 141.37 347.913 141.361 347.676 141.361C347.348 141.361 346.901 141.379 346.336 141.416C345.771 141.452 345.233 141.48 344.723 141.498C344.23 141.534 343.893 141.562 343.711 141.58ZM369.523 141.607C369.323 141.607 369.04 141.398 368.676 140.978L357.547 127.142V137.615C357.547 138.581 357.62 139.228 357.766 139.557C357.875 139.757 358.094 139.939 358.422 140.103C358.75 140.249 359.087 140.359 359.434 140.432C359.78 140.504 360.044 140.541 360.227 140.541C360.263 140.541 360.29 140.623 360.309 140.787C360.327 140.933 360.336 141.088 360.336 141.252C360.336 141.416 360.318 141.525 360.281 141.58C359.406 141.58 358.659 141.543 358.039 141.471C357.438 141.398 356.954 141.361 356.59 141.361C356.152 141.361 355.806 141.37 355.551 141.389C355.296 141.407 355.004 141.434 354.676 141.471C354.366 141.507 353.874 141.543 353.199 141.58C353.145 141.525 353.117 141.361 353.117 141.088C353.117 140.741 353.145 140.568 353.199 140.568C353.618 140.568 354.056 140.486 354.512 140.322C354.986 140.14 355.323 139.876 355.523 139.529C355.706 139.238 355.797 138.572 355.797 137.533V126.787C355.797 125.839 355.66 125.192 355.387 124.846C355.332 124.754 355.159 124.682 354.867 124.627C354.594 124.554 354.293 124.499 353.965 124.463C353.655 124.408 353.409 124.381 353.227 124.381C353.19 124.381 353.154 124.308 353.117 124.162C353.099 124.016 353.09 123.861 353.09 123.697C353.108 123.515 353.135 123.405 353.172 123.369L354.922 123.478C355.341 123.515 355.715 123.542 356.043 123.56C356.389 123.579 356.681 123.588 356.918 123.588C357.228 123.588 357.602 123.57 358.039 123.533C358.495 123.497 359.014 123.442 359.598 123.369C359.962 124.098 360.464 124.9 361.102 125.775C361.758 126.65 362.487 127.58 363.289 128.564C364.109 129.53 364.948 130.533 365.805 131.572C366.68 132.611 367.509 133.65 368.293 134.689C368.311 134.616 368.32 134.489 368.32 134.307C368.339 134.124 368.348 133.878 368.348 133.568V127.142C368.348 126.085 368.229 125.429 367.992 125.174C367.883 125.028 367.682 124.9 367.391 124.791C367.117 124.663 366.826 124.563 366.516 124.49C366.224 124.417 366.005 124.381 365.859 124.381C365.823 124.381 365.786 124.308 365.75 124.162C365.732 124.016 365.723 123.861 365.723 123.697C365.723 123.515 365.741 123.405 365.777 123.369C366.616 123.442 367.336 123.497 367.938 123.533C368.539 123.57 369.022 123.588 369.387 123.588C369.697 123.588 370.089 123.57 370.562 123.533C371.036 123.497 371.483 123.46 371.902 123.424C372.34 123.387 372.632 123.369 372.777 123.369C372.85 123.497 372.887 123.661 372.887 123.861C372.887 124.208 372.841 124.381 372.75 124.381C371.766 124.381 371.009 124.682 370.48 125.283C370.225 125.593 370.098 126.258 370.098 127.279V137.67C370.098 137.998 370.107 138.481 370.125 139.119C370.143 139.757 370.171 140.55 370.207 141.498C370.134 141.571 369.906 141.607 369.523 141.607ZM372.367 141.58C372.294 141.507 372.258 141.37 372.258 141.17C372.258 140.787 372.276 140.596 372.312 140.596C372.458 140.596 372.677 140.55 372.969 140.459C373.26 140.368 373.543 140.258 373.816 140.131C374.108 139.985 374.29 139.848 374.363 139.721C374.509 139.502 374.664 139.238 374.828 138.928C374.992 138.599 375.111 138.335 375.184 138.135L375.32 137.807L381.363 123.916C381.564 123.442 381.901 123.205 382.375 123.205C382.648 123.205 382.867 123.323 383.031 123.56L388.637 137.424C388.801 137.843 388.956 138.244 389.102 138.627C389.266 138.991 389.411 139.338 389.539 139.666C389.612 139.848 389.776 140.012 390.031 140.158C390.286 140.286 390.56 140.386 390.852 140.459C391.161 140.532 391.398 140.568 391.562 140.568C391.635 140.568 391.672 140.723 391.672 141.033C391.672 141.325 391.654 141.507 391.617 141.58L389.949 141.471C389.421 141.434 388.965 141.407 388.582 141.389C388.199 141.352 387.889 141.343 387.652 141.361L383.523 141.58C383.451 141.507 383.414 141.316 383.414 141.006C383.414 140.714 383.451 140.568 383.523 140.568C383.924 140.568 384.335 140.486 384.754 140.322C385.173 140.14 385.383 139.903 385.383 139.611C385.383 139.593 385.328 139.429 385.219 139.119C385.128 138.809 384.954 138.363 384.699 137.779L383.879 135.783C383.806 135.71 383.742 135.674 383.688 135.674C383.505 135.655 383.195 135.646 382.758 135.646C382.32 135.646 381.755 135.646 381.062 135.646C380.461 135.646 379.923 135.646 379.449 135.646C378.993 135.646 378.611 135.655 378.301 135.674C378.228 135.674 378.164 135.719 378.109 135.81L377.207 137.889C376.897 138.618 376.715 139.146 376.66 139.474C376.624 139.803 376.788 140.058 377.152 140.24C377.48 140.404 377.763 140.504 378 140.541C378.255 140.559 378.474 140.568 378.656 140.568C378.711 140.586 378.738 140.732 378.738 141.006C378.738 141.243 378.72 141.434 378.684 141.58C377.863 141.525 377.262 141.48 376.879 141.443C376.514 141.407 376.241 141.389 376.059 141.389C375.876 141.37 375.676 141.37 375.457 141.389C375.257 141.407 374.928 141.434 374.473 141.471C374.017 141.489 373.315 141.525 372.367 141.58ZM381.062 134.006C381.427 134.006 381.764 134.006 382.074 134.006C382.402 133.988 382.712 133.969 383.004 133.951L383.086 133.814L381.117 128.92L378.984 133.814C378.984 133.887 379.003 133.924 379.039 133.924C379.586 133.978 380.26 134.006 381.062 134.006Z" fill="#0D5131"/>
</svg>
